<svg xmlns="http://www.w3.org/2000/svg" width="514.443" height="489.535" viewBox="0 0 514.443 489.535"><defs><style>.a,.d{fill:#ebebeb;}.b{fill:#dbdbdb;}.c{fill:#fff;}.d{opacity:0.5;}.e{fill:#c7c7c7;}.f,.g{fill:#a6a6a6;}.g,.o{opacity:0.1;}.h{fill:#263238;}.i{fill:#455a64;}.j{fill:#1c75bc;}.k{fill:#ad6359;}.l{fill:#37474f;}.m{fill:none;stroke:#f3a59c;stroke-linecap:round;stroke-linejoin:round;stroke-width:0;}.n{fill:#dd6a57;}.p{fill:#ffa2be;}</style></defs><g transform="translate(-36.58 -56.54)"><g transform="translate(58.108 69.077)"><circle class="a" cx="31.349" cy="31.349" r="31.349" transform="translate(415.58)"/><circle class="b" cx="29.914" cy="29.914" r="29.914" transform="translate(418.451 2.135)"/><circle class="c" cx="28.016" cy="28.016" r="28.016" transform="translate(418.124 57.672) rotate(-85.29)"/><path class="d" d="M464.163,92.079c-12.751,7.722-33.721,20.413-45.452,27.364a28.124,28.124,0,0,1-7.651-10.3L449.822,73.22a28.016,28.016,0,0,1,14.34,18.859Z" transform="translate(11.59 -65.973)"/><path class="d" d="M462.816,95a27.638,27.638,0,0,1-1.85,9.109l-34.943,16.523a26.98,26.98,0,0,1-4.412-1.886C432.167,112.578,451.453,101.476,462.816,95Z" transform="translate(13.553 -61.919)"/><rect class="e" width="0.546" height="4.246" transform="translate(448.104 6.061)"/><rect class="e" width="0.546" height="4.246" transform="translate(435.143 9.659) rotate(-30)"/><rect class="e" width="0.546" height="4.246" transform="translate(425.7 19.262) rotate(-60)"/><rect class="e" width="4.246" height="0.546" transform="translate(422.389 31.776)"/><rect class="e" width="4.246" height="0.546" transform="translate(425.721 44.785) rotate(-30)"/><rect class="e" width="4.246" height="0.546" transform="translate(435.17 54.441) rotate(-60.03)"/><rect class="e" width="0.546" height="4.246" transform="translate(448.104 53.79)"/><rect class="e" width="0.546" height="4.246" transform="translate(459.013 51.01) rotate(-30)"/><rect class="e" width="0.546" height="4.246" transform="translate(467.036 43.125) rotate(-60)"/><rect class="e" width="4.246" height="0.546" transform="translate(470.106 31.776)"/><rect class="e" width="4.246" height="0.546" transform="translate(467.061 20.927) rotate(-30.01)"/><rect class="e" width="4.246" height="0.546" transform="translate(459.005 13.086) rotate(-60.03)"/><path class="e" d="M433.364,73.842l.925,25.952-2.669-.036,1.02-25.929Z" transform="translate(15.416 -65.859)"/><path class="f" d="M449.659,86.6,432.2,97.738l-1.269-2.325,18.385-9.453Z" transform="translate(15.288 -63.602)"/><path class="e" d="M433.8,94.273a.913.913,0,1,1-.913-.913.913.913,0,0,1,.913.913Z" transform="translate(15.481 -62.224)"/><path class="b" d="M343.84,338.549s18.575-4.211,28.751-13.581S388.45,298.79,388.45,298.79a158.562,158.562,0,0,0-20.828,5.468,35.216,35.216,0,0,0-6.3,8.908,43.317,43.317,0,0,1,0-6.369,28.292,28.292,0,0,0-6.607,4.009C346.224,318.195,343.84,338.549,343.84,338.549Z" transform="translate(-0.921 -23.99)"/><path class="f" d="M378.6,306.53c2.526-1.755,5.1-3.44,7.627-5.207a.146.146,0,0,0-.154-.249c-4.744,2.859-9.489,5.931-14.067,9.109-1.589,1.115-3.155,2.277-4.745,3.463l.32-.557c.557-.925,1.186-1.838,1.732-2.752a38.865,38.865,0,0,1,3.95-5.266c0-.059,0-.154-.095-.083-1.447,1.661-2.894,3.309-4.211,5.077-.629.842-1.186,1.72-1.767,2.609-.285.463-.569.925-.83,1.4l-.285.474c-2.372,1.886-4.745,3.855-6.963,5.931q-2.064,1.933-4,3.985c.724-2.242,1.352-4.519,2.182-6.725a.059.059,0,1,0-.119,0c-.807,2.372-1.7,4.65-2.372,7.046q-2.135,2.3-4.057,4.744a.535.535,0,0,1,.059-.3c.214-.878.439-1.755.664-2.621.451-1.684.949-3.345,1.518-4.994a29.167,29.167,0,0,1,4.982-9.43c.059-.059,0-.142-.083-.083a36.128,36.128,0,0,0-7.117,14.85q-.308,1.186-.569,2.372c-.095.415-.2.854-.273,1.281q-.854,1.186-1.637,2.313a80.238,80.238,0,0,0-7.864,15.42,180.536,180.536,0,0,0-5.931,18.551.095.095,0,0,0,.19,0c3.641-10.865,7.342-21.884,13.557-31.6a72.722,72.722,0,0,1,4.246-5.931,35.582,35.582,0,0,0,9.026-1.8,40.084,40.084,0,0,0,9.05-4.377,51,51,0,0,0,4.638-3.5c.071-.059,0-.154-.071-.095a37.3,37.3,0,0,1-8.516,5.148,46.546,46.546,0,0,1-9.37,3.143c-1.364.3-2.752.522-4.151.712a78.139,78.139,0,0,1,5.48-6.073c.629-.629,1.269-1.186,1.922-1.827a43.6,43.6,0,0,1,6.856-3.926c3.048-1.471,6.037-3.036,9.05-4.567,1.708-.866,3.392-1.744,5.1-2.586.071,0,0-.142-.059-.107-3.06,1.471-6.156,2.859-9.24,4.27-2.894,1.317-5.824,2.657-8.611,4.223l-.356.2c2.515-2.182,5.124-4.27,7.793-6.286Q374.793,309.175,378.6,306.53Z" transform="translate(-2.66 -23.569)"/><path class="f" d="M372.207,313.741c-1.518.664-3.048,1.245-4.543,1.945s-3,1.566-4.46,2.432c-.059,0,0,.119.059.095,1.483-.712,2.977-1.376,4.448-2.111s2.989-1.566,4.531-2.242C372.313,313.836,372.278,313.705,372.207,313.741Z" transform="translate(2.678 -21.209)"/><path class="b" d="M293,253.42a26.51,26.51,0,0,1,5.539,15.42c.071,1.661-.2,3.985-.391,6.713a44.134,44.134,0,0,1,12.122,10.355,21.954,21.954,0,0,0-12.253-2.93,38.871,38.871,0,0,0,.712,5.551,20.578,20.578,0,0,1,7.876,1.554,17.542,17.542,0,0,0-7.117,1.411c3.309,10.533,13.154,21.35,40.328,25.94A57.064,57.064,0,0,0,335,279.206C326.864,263.194,293,253.42,293,253.42Z" transform="translate(-10.384 -32.434)"/><path class="f" d="M348.074,361.375q-.688-6.749-1.756-13.451a266.882,266.882,0,0,0-5.48-26.593,105.493,105.493,0,0,0-3.9-12.122,16.61,16.61,0,0,0,.107-2.171c0-.878,0-1.744,0-2.621,0-1.732-.095-3.475-.249-5.207a62.948,62.948,0,0,0-1.672-10.189c-.5-1.933-1.068-3.843-1.637-5.753a.059.059,0,0,0-.119,0,75.912,75.912,0,0,1,2,10.165,97.815,97.815,0,0,1,.913,10.2c0,.937,0,1.862,0,2.8v1.186a86.843,86.843,0,0,0-4.567-9.489,116.076,116.076,0,0,0-9.311-13.913,6.012,6.012,0,0,0-.213-1.518c-.13-.6-.261-1.186-.4-1.815q-.415-1.862-.925-3.7c-.676-2.467-1.566-4.839-2.372-7.271a.059.059,0,1,0-.119,0c.723,2.372,1.186,4.9,1.744,7.342.273,1.186.546,2.372.807,3.641l.391,1.827a.621.621,0,0,0,0,.13c-1.1-1.388-2.218-2.752-3.369-4.092-5.183-6.085-10.877-11.7-16.606-17.27-.7-.688-1.423-1.352-2.135-2.028-.059-.059-.142,0-.083.095,5.468,5.705,10.853,11.482,15.953,17.519q1.779,2.153,3.558,4.365a18.829,18.829,0,0,0-1.85-1.186c-1.578-1.032-3.179-2.04-4.828-2.965s-3.309-1.827-5.005-2.657-3.558-1.578-5.29-2.55c-.071,0-.13.083-.059.107a39.632,39.632,0,0,1,4.958,2.752c1.649.984,3.309,1.969,4.922,3s3.2,2,4.745,3.036c1.328.866,2.621,1.8,4,2.586a130.378,130.378,0,0,1,8.706,12.68,95.909,95.909,0,0,1,4.5,8.528l-.973-.427-2.491-1.1-4.8-2.1c-3.048-1.317-6.144-2.538-9.133-4a40.734,40.734,0,0,1-4.875-2.7c-.071,0-.13.059-.059.107,5.563,3.843,11.861,6.547,17.982,9.275l2.669,1.186c.735.32,1.471.688,2.23.973a94.876,94.876,0,0,1,4.59,12.585,255.713,255.713,0,0,1,5.931,26.284c1.554,8.872,2.61,17.792,3.428,26.783.095,1.115.2,2.242.32,3.357a.356.356,0,1,0,.712,0A113.446,113.446,0,0,0,348.074,361.375Z" transform="translate(-9.248 -31.314)"/><path class="f" d="M326.789,283.41a78.581,78.581,0,0,0-1.981-8.161.059.059,0,0,0-.119,0c.688,2.657,1.186,5.361,1.672,8.054s.961,5.5,1.352,8.3h.071A73.267,73.267,0,0,0,326.789,283.41Z" transform="translate(-4.485 -28.382)"/><path class="f" d="M318.5,289.419a49.8,49.8,0,0,0-5.931-3.321c-1-.51-2-1-3-1.483s-2.111-.925-3.131-1.435c-.071,0-.142.071-.059.107.984.5,1.933,1.1,2.906,1.637l3.013,1.649a67.3,67.3,0,0,0,6.025,3.108.158.158,0,0,0,.178-.261Z" transform="translate(-7.901 -26.895)"/><path class="g" d="M344.13,312.573s17.175-4.1,25.063-15.633c7.544-11.007,9.975-29.772,10.165-31.42-.308,1.518-3.855,17.91-15.55,25.549C354.853,296.928,346.194,301.744,344.13,312.573Z" transform="translate(-0.867 -30.182)"/><path class="f" d="M358.494,280.163A21.953,21.953,0,0,0,352.16,290.6h0a25.774,25.774,0,0,1,6.369-10.355C358.636,280.2,358.553,280.1,358.494,280.163Z" transform="translate(0.627 -27.46)"/><path class="b" d="M344.183,312.592s17.175-4.1,25.063-15.633c7.544-11.007,9.975-29.772,10.165-31.42a.411.411,0,0,0,0-.119s-8.3,11.719-16.9,14.708S341.656,293.448,344.183,312.592Z" transform="translate(-0.92 -30.201)"/><path class="f" d="M377.477,270.875a68.849,68.849,0,0,1-5.314,9.086,36.343,36.343,0,0,1-7.117,7.271c-2.372,1.85-4.744,3.558-7.117,5.349l.059-.083c.439-.664.913-1.293,1.412-1.922.973-1.257,2.052-2.443,3.131-3.618,2.135-2.313,4.318-4.59,6.227-7.117a26.5,26.5,0,0,0,2.764-4.448c0-.071-.083-.107-.119,0-2.787,5.812-8.362,9.489-12.324,14.423a25.406,25.406,0,0,0-1.589,2.171,9.082,9.082,0,0,0-1,1.755,36.392,36.392,0,0,0-5.859,5.931,24.074,24.074,0,0,1,.688-3.333,16.535,16.535,0,0,1,1.827-4.353c0-.071-.071-.142-.107-.071a20.473,20.473,0,0,0-2,4.329,15.207,15.207,0,0,0-.629,3.713h0a33.831,33.831,0,0,0-2.313,3.558l.213-1.1c.332-1.708.712-3.416,1.186-5.112a30.685,30.685,0,0,1,4.128-9.679s-.059-.13-.107-.071a37.411,37.411,0,0,0-4.578,9.489c-.546,1.684-.985,3.4-1.364,5.124-.19.854-.368,1.7-.522,2.55-.083.439-.178.89-.249,1.34A62.765,62.765,0,0,0,342.83,317.7a172.37,172.37,0,0,0-3.641,21.753A178.428,178.428,0,0,0,338,362.526c0,.961.071,1.933.119,2.894a.2.2,0,0,0,.4,0c.166-3.819.261-7.627.486-11.434s.557-7.627.973-11.422a200.987,200.987,0,0,1,3.558-22.216c1.388-6.275,3.191-12.608,6.63-18.112a34.148,34.148,0,0,1,6.2-7.366c2.372-2.159,5.041-4.057,7.579-6.061a41.776,41.776,0,0,0,6.963-6.69,54.81,54.81,0,0,0,5.456-8.872l1.186-2.372C377.619,270.875,377.512,270.8,377.477,270.875Z" transform="translate(-2.011 -29.191)"/><path class="f" d="M369.381,273.006a58.354,58.354,0,0,1-3.831,6.69h.083a47,47,0,0,0,3.867-6.7C369.535,273.006,369.417,272.923,369.381,273.006Z" transform="translate(3.119 -28.796)"/><path class="b" d="M291,298.79s-.273,24.41,14.328,31.456,22.418,1.186,32.345,3.558h0c-.38-.581-7.461-10.758-18.729-13.569C307.309,317.329,294.475,308.955,291,298.79Z" transform="translate(-10.756 -23.99)"/><path class="g" d="M291,298.79s-.273,24.41,14.328,31.456,22.418,1.186,32.345,3.558h0a54.836,54.836,0,0,0-16.606-4.9C311.816,327.779,294.226,321.777,291,298.79Z" transform="translate(-10.756 -23.99)"/><path class="f" d="M337.592,331.877a24.449,24.449,0,0,0-5.812-3.926c-.308-.154-.629-.273-.949-.4s-.32-.38-.486-.569c-.439-.451-.9-.89-1.376-1.3a20.492,20.492,0,0,0-2.942-2.111c-2.372-1.423-5.065-2.372-7.544-3.736-.071,0-.13.071,0,.107,1.186.629,2.372,1.328,3.558,2.028s2.372,1.317,3.463,2.04a23.621,23.621,0,0,1,2.894,2.171c.261.225.5.474.747.724a37.337,37.337,0,0,0-4.934-1.317c-2.669-.546-5.373-.925-8.042-1.495a37.485,37.485,0,0,1-3.879-1.044c-1.186-.973-2.372-1.945-3.558-3a30.163,30.163,0,0,1-3.784-4.187s-.154,0-.107.071a45.071,45.071,0,0,0,5.99,6.607c-.629-.249-1.257-.5-1.862-.783A30.009,30.009,0,0,1,296.528,311.4c0-.071-.154,0-.107.059a33.982,33.982,0,0,0,10.058,9.667,30.282,30.282,0,0,0,6.358,3.013,59.889,59.889,0,0,0,7.911,1.862,55.946,55.946,0,0,1,7.733,1.838,23.606,23.606,0,0,1,6.488,3.416,30.33,30.33,0,0,1,8.754,10.853,54.491,54.491,0,0,1,4.816,17.792c0,.261.439.261.415,0C348.243,349.693,345.5,339.006,337.592,331.877Z" transform="translate(-9.748 -21.648)"/><path class="f" d="M317.887,322.894a8.3,8.3,0,0,0-3-2.716,11.16,11.16,0,0,1-3.558-2.953c0-.071-.154,0-.107.059a12.135,12.135,0,0,0,3.155,2.823,11.115,11.115,0,0,1,3.44,2.847Z" transform="translate(-6.994 -20.565)"/><path class="a" d="M323.38,343.86l.664,13.427,2.028,41.028H356.7l2.04-41.028.664-13.427Z" transform="translate(-4.729 -15.602)"/><path class="b" d="M323.38,343.86l.664,13.427h34.694l.664-13.427Z" transform="translate(-4.729 -15.602)"/><rect class="a" width="40.328" height="12.81" transform="translate(356.832 335.47) rotate(180)"/><path class="a" d="M80.826,169.56,75.56,181.172l3.558,1.6a3.037,3.037,0,0,1,1.755,2.657,13.021,13.021,0,0,0,.19,1.9,3.06,3.06,0,0,1-1.186,2.93L76.7,192.524l7.425,10.367,3.179-2.266a3.025,3.025,0,0,1,3.167-.213,17.609,17.609,0,0,0,1.732.795,3.048,3.048,0,0,1,1.945,2.515l.38,3.89,12.68-1.257-.38-3.9a3.013,3.013,0,0,1,1.411-2.835l.783-.534c.249-.178.51-.368.747-.569a3.013,3.013,0,0,1,3.131-.427l3.558,1.625,5.266-11.612-3.558-1.613a3.072,3.072,0,0,1-1.767-2.657,16.883,16.883,0,0,0-.178-1.886,3.048,3.048,0,0,1,1.186-2.93l3.179-2.277L113.16,166.37l-3.179,2.277a3.025,3.025,0,0,1-3.167.2,18.561,18.561,0,0,0-1.72-.771,3.013,3.013,0,0,1-1.91-2.467l-.391-3.89-12.68,1.257.38,3.89a3.013,3.013,0,0,1-1.364,2.775,9.1,9.1,0,0,0-.783.534c-.261.178-.51.368-.759.557a3,3,0,0,1-3.143.439Zm11.731,6.583a7.477,7.477,0,1,0,.012,0Z" transform="translate(-50.853 -49.501)"/><path class="a" d="M437.841,266.78l-7.733,4.46,1.364,2.372a2.123,2.123,0,0,1-.071,2.23,10.259,10.259,0,0,0-.664,1.186,2.135,2.135,0,0,1-1.886,1.186h-2.74v8.932h2.74a2.135,2.135,0,0,1,1.886,1.186,12.312,12.312,0,0,0,.664,1.186,2.123,2.123,0,0,1,.071,2.23l-1.364,2.372,7.733,4.46,1.376-2.372a2.135,2.135,0,0,1,1.969-1.044H442.5a2.135,2.135,0,0,1,1.957,1.032l1.376,2.372,7.733-4.46-1.364-2.372a2.1,2.1,0,0,1,.083-2.23,12.106,12.106,0,0,0,.664-1.186,2.111,2.111,0,0,1,1.886-1.186h2.728V278.2h-2.728a2.111,2.111,0,0,1-1.886-1.186c-.2-.391-.427-.771-.664-1.186a2.088,2.088,0,0,1-.083-2.218l1.364-2.372-7.733-4.46-1.364,2.372A2.135,2.135,0,0,1,442.5,270.2h-1.317a2.135,2.135,0,0,1-1.969-1.044Zm4,8.54a3.715,3.715,0,1,0,.047.024Z" transform="translate(14.391 -29.948)"/><path class="a" d="M55.726,152.779l5.421,7.117,2.171-1.661a2.088,2.088,0,0,1,2.218-.214c.4.19.818.356,1.186.51a2.135,2.135,0,0,1,1.411,1.72l.356,2.716,8.86-1.186-.356-2.7a2.123,2.123,0,0,1,.925-2.028c.368-.249.712-.522,1.056-.807a2.123,2.123,0,0,1,2.194-.368L83.7,156.93l3.428-8.3-2.491-.949a2.135,2.135,0,0,1-1.281-1.815,2.116,2.116,0,0,0-.071-.664c-.071-.225,0-.427-.095-.64a2.1,2.1,0,0,1,.771-2.088l2.182-1.672-5.421-7.117-2.182,1.661a2.111,2.111,0,0,1-2.218.213,11.056,11.056,0,0,0-1.186-.51,2.135,2.135,0,0,1-1.411-1.72l-.356-2.716L64.5,131.8l.356,2.716a2.147,2.147,0,0,1-.913,2.028,11.856,11.856,0,0,0-1.056.807,2.147,2.147,0,0,1-2.206.368l-2.526-1.056-3.428,8.3,2.526,1.056a2.111,2.111,0,0,1,1.245,1.661l.071.652a3,3,0,0,0,.107.652,2.123,2.123,0,0,1-.783,2.088Zm7.947-5.077a5.648,5.648,0,1,0,0-.024Z" transform="translate(-54.73 -55.291)"/></g><g transform="translate(36.58 451.197)"><path class="h" d="M36.58,389.863l63.291-.3,63.279-.095,126.571-.2,126.571.19,63.279.107,63.291.3-63.291.285-63.279.107-126.571.2-126.571-.2-63.279-.107Z" transform="translate(-36.58 -389.27)"/></g><g transform="translate(43.827 470.721)"><ellipse class="a" cx="98.697" cy="15.68" rx="98.697" ry="15.68" transform="translate(309.802)"/><ellipse class="a" cx="210.785" cy="29.155" rx="210.785" ry="29.155" transform="translate(0 17.045)"/></g><g transform="translate(120.877 56.54)"><rect class="a" width="322.174" height="212.944" transform="translate(7.662 10.438)"/><rect class="i" width="337.7" height="10.426" transform="translate(0)"/><rect class="c" width="50.873" height="60.279" transform="translate(23.189 39.605)"/><path class="i" d="M150.767,93.677a1.838,1.838,0,1,1-1.827-1.827,1.838,1.838,0,0,1,1.827,1.827Z" transform="translate(-100.31 -49.968)"/><path class="a" d="M135.36,100.187c5.148-.391,10.3-.415,15.42-.474s10.284.083,15.42.474c-5.148.4-10.284.427-15.42.486S140.508,100.59,135.36,100.187Z" transform="translate(-102.493 -48.507)"/><path class="a" d="M135.36,104.206a72.649,72.649,0,0,1,16.784,0,74.453,74.453,0,0,1-16.784,0Z" transform="translate(-102.493 -47.759)"/><path class="a" d="M135.36,108.215c3.558-.368,7.117-.451,10.675-.474a97.4,97.4,0,0,1,10.675.474c-3.558.38-7.117.463-10.675.486A94.813,94.813,0,0,1,135.36,108.215Z" transform="translate(-102.493 -47.011)"/><path class="a" d="M135.36,112.235c4.472-.368,8.943-.463,13.415-.474s8.943.095,13.4.474c-4.46.38-8.931.463-13.4.474S139.832,112.6,135.36,112.235Z" transform="translate(-102.493 -46.263)"/><path class="a" d="M135.36,116.257c3.89-.38,7.769-.463,11.648-.486a112.866,112.866,0,0,1,11.66.486c-3.89.368-7.769.463-11.66.474S139.251,116.624,135.36,116.257Z" transform="translate(-102.493 -45.517)"/><path class="a" d="M135.36,120.266c4.97-.391,9.94-.415,14.909-.474s9.952.083,14.921.474c-4.97.4-9.94.427-14.921.486S140.33,120.67,135.36,120.266Z" transform="translate(-102.493 -44.77)"/><path class="a" d="M135.36,124.286a95.617,95.617,0,0,1,19.263,0,98,98,0,0,1-19.263,0Z" transform="translate(-102.493 -44.022)"/><path class="a" d="M135.36,128.3c5.148-.391,10.3-.415,15.42-.474s10.284.083,15.42.474c-5.148.4-10.284.427-15.42.486S140.508,128.7,135.36,128.3Z" transform="translate(-102.493 -43.276)"/><path class="a" d="M135.36,132.317c5.148-.391,10.3-.415,15.42-.474s10.284.071,15.42.474c-5.148.4-10.284.427-15.42.474S140.508,132.708,135.36,132.317Z" transform="translate(-102.493 -42.527)"/><rect class="c" width="39.83" height="47.196" transform="translate(274.966 91.39)"/><path class="i" d="M357.852,137.284a1.364,1.364,0,1,1-.4-.969A1.376,1.376,0,0,1,357.852,137.284Z" transform="translate(-61.595 -41.766)"/><path class="a" d="M344.85,144.486a29.655,29.655,0,0,1,8.3,0A29.653,29.653,0,0,1,344.85,144.486Z" transform="translate(-63.503 -40.226)"/><path class="a" d="M344.85,147.328a47.59,47.59,0,0,1,10.817,0,49.474,49.474,0,0,1-10.817,0Z" transform="translate(-63.503 -39.7)"/><path class="a" d="M344.85,150.157a42.5,42.5,0,0,1,10.023,0,40.875,40.875,0,0,1-10.023,0Z" transform="translate(-63.503 -39.171)"/><path class="a" d="M344.85,153.047a42.5,42.5,0,0,1,10.023,0A42.5,42.5,0,0,1,344.85,153.047Z" transform="translate(-63.503 -38.634)"/><path class="a" d="M344.85,155.838a30.839,30.839,0,0,1,8.706,0,32.1,32.1,0,0,1-8.706,0Z" transform="translate(-63.503 -38.116)"/><path class="a" d="M344.85,158.667a52.544,52.544,0,0,1,11.15,0,50.538,50.538,0,0,1-11.149,0Z" transform="translate(-63.503 -37.588)"/><path class="a" d="M344.85,161.507a35.854,35.854,0,0,1,9.2,0A35.857,35.857,0,0,1,344.85,161.507Z" transform="translate(-63.503 -37.059)"/><path class="a" d="M344.85,164.348a54.027,54.027,0,0,1,11.529,0,56.175,56.175,0,0,1-11.529,0Z" transform="translate(-63.503 -36.532)"/><path class="a" d="M344.85,167.177a56.178,56.178,0,0,1,11.529,0A54.031,54.031,0,0,1,344.85,167.177Z" transform="translate(-63.503 -36.004)"/><path class="a" d="M358.73,144.487a50.565,50.565,0,0,1,10.936,0,50.56,50.56,0,0,1-10.936,0Z" transform="translate(-60.919 -40.227)"/><path class="a" d="M358.73,147.328a21.1,21.1,0,0,1,7.188,0,21.93,21.93,0,0,1-7.188,0Z" transform="translate(-60.919 -39.7)"/><path class="a" d="M358.73,150.157a44.837,44.837,0,0,1,10.3,0A43.113,43.113,0,0,1,358.73,150.157Z" transform="translate(-60.919 -39.171)"/><path class="a" d="M358.73,153.047a42.394,42.394,0,0,1,10.011,0A42.393,42.393,0,0,1,358.73,153.047Z" transform="translate(-60.919 -38.634)"/><path class="a" d="M358.73,155.838a48.631,48.631,0,0,1,10.936,0,50.566,50.566,0,0,1-10.936,0Z" transform="translate(-60.919 -38.116)"/><path class="a" d="M358.73,158.667a32.1,32.1,0,0,1,8.706,0,30.837,30.837,0,0,1-8.706,0Z" transform="translate(-60.919 -37.588)"/><path class="a" d="M358.73,161.507a44.832,44.832,0,0,1,10.3,0,44.842,44.842,0,0,1-10.3,0Z" transform="translate(-60.919 -37.059)"/><path class="a" d="M358.73,164.348a25.833,25.833,0,0,1,7.959,0,26.854,26.854,0,0,1-7.959,0Z" transform="translate(-60.919 -36.532)"/><path class="a" d="M358.73,167.177a24.743,24.743,0,0,1,7.639,0,23.805,23.805,0,0,1-7.639,0Z" transform="translate(-60.919 -36.004)"/><rect class="j" width="30.602" height="30.602" transform="translate(64.833 76.754)"/><path class="i" d="M177.323,124.157a1.827,1.827,0,1,1-1.827-1.827,1.827,1.827,0,0,1,1.827,1.827Z" transform="translate(-95.362 -44.295)"/><rect class="b" width="322.174" height="13.545" transform="translate(7.662 10.438)"/><path class="e" d="M200.2,90.927l51.655-.107,51.667.107-51.667.107Z" transform="translate(-90.425 -50.16)"/><path class="e" d="M200.2,94.477l51.655-.107,51.667.107-51.667.119Z" transform="translate(-90.425 -49.499)"/><path class="e" d="M200.2,98.039l51.655-.119,51.667.119-51.667.107Z" transform="translate(-90.425 -48.838)"/><path class="e" d="M200.2,101.589l51.655-.119,51.667.119-51.667.107Z" transform="translate(-90.425 -48.178)"/><path class="e" d="M200.2,105.137l51.655-.107,51.667.107-51.667.107Z" transform="translate(-90.425 -47.515)"/><path class="e" d="M200.2,108.687l51.655-.107,51.667.107-51.667.119Z" transform="translate(-90.425 -46.854)"/><path class="e" d="M200.2,112.237l51.655-.107,51.667.107-51.667.119Z" transform="translate(-90.425 -46.194)"/><path class="e" d="M200.2,115.8l51.655-.119,51.667.119-51.667.107Z" transform="translate(-90.425 -45.533)"/><path class="e" d="M200.2,119.349l51.655-.119,51.667.119-51.667.107Z" transform="translate(-90.425 -44.872)"/><path class="e" d="M200.2,122.9l51.655-.107,51.667.107L251.856,123Z" transform="translate(-90.425 -44.21)"/><path class="e" d="M200.2,126.447l51.655-.107,51.667.107-51.667.119Z" transform="translate(-90.425 -43.549)"/><path class="e" d="M200.2,130.009l51.655-.119,51.667.119-51.667.107Z" transform="translate(-90.425 -42.888)"/><path class="e" d="M200.2,133.559l51.655-.119,51.667.119-51.667.107Z" transform="translate(-90.425 -42.227)"/><path class="e" d="M200.2,137.107,251.856,137l51.667.107-51.667.107Z" transform="translate(-90.425 -41.565)"/><path class="e" d="M200.2,140.657l51.655-.107,51.667.107-51.667.119Z" transform="translate(-90.425 -40.904)"/><rect class="j" width="7.84" height="34.409" transform="translate(120.699 70.266)"/><rect class="c" width="7.84" height="48.963" transform="translate(135.229 55.712)"/><rect class="j" width="7.84" height="55.57" transform="translate(149.771 49.105)"/><rect class="c" width="7.84" height="46.947" transform="translate(164.301 57.717)"/><rect class="j" width="7.84" height="44.385" transform="translate(178.843 60.279)"/><rect class="c" width="7.84" height="19.239" transform="translate(193.373 85.436)"/><path class="e" d="M202.625,88.42l.178,16.712.119,16.712q.119,16.724.119,33.425l-.415-.4h50.256l25.134.142,25.134.237-25.134.249-25.134.142H202.21v-.415q0-16.712.119-33.425l.119-16.712Z" transform="translate(-90.051 -50.607)"/><rect class="e" width="7.84" height="0.712" transform="translate(120.699 108.198)"/><rect class="e" width="7.84" height="0.712" transform="translate(135.229 108.198)"/><rect class="e" width="7.84" height="0.712" transform="translate(149.771 108.198)"/><rect class="e" width="7.84" height="0.712" transform="translate(164.301 108.198)"/><rect class="e" width="7.84" height="0.712" transform="translate(178.843 108.198)"/><rect class="e" width="7.84" height="0.712" transform="translate(193.373 108.198)"/><rect class="e" width="31.112" height="2.669" transform="translate(36.639 196.599)"/><rect class="e" width="42.036" height="2.669" transform="translate(36.639 202.174)"/><rect class="e" width="22.311" height="2.669" transform="translate(36.639 207.761)"/><rect class="j" width="6.488" height="6.488" transform="translate(23.212 196.599)"/><rect class="e" width="31.112" height="2.669" transform="translate(237.544 40.648)"/><rect class="e" width="42.036" height="2.669" transform="translate(237.544 46.223)"/><rect class="e" width="22.311" height="2.669" transform="translate(237.544 51.81)"/><rect class="j" width="6.488" height="6.488" transform="translate(224.117 40.648)"/><rect class="e" width="36.983" height="2.669" transform="translate(237.544 62.248)"/><rect class="e" width="29.25" height="2.669" transform="translate(237.544 67.822)"/><rect class="e" width="42.036" height="2.669" transform="translate(237.544 73.409)"/><rect class="c" width="6.488" height="6.488" transform="translate(224.117 62.248)"/><rect class="b" width="139.44" height="60.99" transform="translate(23.189 128.065)"/><rect class="c" width="124.625" height="5.266" transform="translate(30.602 135.763)"/><rect class="j" width="63.718" height="5.266" transform="translate(30.602 135.763)"/><rect class="c" width="124.625" height="5.266" transform="translate(30.602 145.845)"/><rect class="j" width="114.318" height="5.266" transform="translate(30.602 145.845)"/><rect class="c" width="124.625" height="5.266" transform="translate(30.602 155.927)"/><rect class="j" width="36.876" height="5.266" transform="translate(30.602 155.927)"/><rect class="c" width="124.625" height="5.266" transform="translate(30.602 166.009)"/><rect class="j" width="97.938" height="5.266" transform="translate(30.602 166.009)"/><rect class="c" width="124.625" height="5.266" transform="translate(30.602 176.091)"/><rect class="j" width="72.009" height="5.266" transform="translate(30.602 176.091)"/><path class="i" d="M323.226,192.53a35.584,35.584,0,0,1-5.432,16.416l-9.133-5.278a25.513,25.513,0,0,0,3.985-11.138Z" transform="translate(-70.238 -31.23)"/><path class="f" d="M324.453,194.975v1.186H313.9v-1.186a25.359,25.359,0,0,0-11.446-21.22l5.29-9.145a35.951,35.951,0,0,1,16.712,30.365Z" transform="translate(-71.394 -36.426)"/><path class="i" d="M308.478,164.653l-5.266,9.145a25.241,25.241,0,0,0-11.861-3.333V159.92a35.714,35.714,0,0,1,17.128,4.733Z" transform="translate(-73.46 -37.299)"/><path class="j" d="M294.794,159.92v10.545a25.359,25.359,0,0,0-21.089,12.514l-9.145-5.266a35.9,35.9,0,0,1,30.234-17.792Z" transform="translate(-78.446 -37.299)"/><path class="f" d="M273.7,181.368a25.015,25.015,0,0,0-2.728,11.031H260.43a35.441,35.441,0,0,1,4.128-16.309Z" transform="translate(-79.215 -34.29)"/><path class="i" d="M282.205,211.131l-5.278,9.145a35.845,35.845,0,0,1-16.487-29.1h10.545a25.359,25.359,0,0,0,11.221,19.95Z" transform="translate(-79.213 -31.481)"/><path class="b" d="M323.079,208.322a35.939,35.939,0,0,1-47.6,10.58l5.278-9.133a25.4,25.4,0,0,0,33.211-6.749Z" transform="translate(-76.414 -29.277)"/><path class="j" d="M309.187,191.18a16.677,16.677,0,0,1-10.165,15.337L292.51,191.18Z" transform="translate(-73.244 -31.481)"/><path class="j" d="M293.357,192.833l6.5,15.337h0c-.51.2-1.02.4-1.53.557a16.724,16.724,0,0,1-4.946.747,16.913,16.913,0,0,1-4.946-.747,16.651,16.651,0,1,1,20.852-20.852,17.035,17.035,0,0,1,.747,4.946Z" transform="translate(-76.202 -34.273)"/><path class="b" d="M293.339,192.833l6.5,15.337h0c-.51.2-1.02.4-1.53.557a16.66,16.66,0,0,1-20.84-10.96,16.628,16.628,0,1,1,32.5-4.982Z" transform="translate(-76.185 -34.273)"/><path class="f" d="M293.328,192.811l-10.853,12.62a16.606,16.606,0,1,1,27.506-12.62Z" transform="translate(-76.174 -34.251)"/><path class="h" d="M339.094,228.277H315.882L287.13,199.525l.427-.415,28.574,28.574h22.963Z" transform="translate(-74.245 -30.005)"/><rect class="h" width="3.238" height="3.238" transform="translate(211.485 167.693)"/><path class="h" d="M336.993,206.966H310.839L298.42,194.547l.415-.427,12.241,12.253h25.917Z" transform="translate(-72.144 -30.934)"/><rect class="h" width="3.226" height="3.238" transform="translate(224.864 161.787)"/><rect class="h" width="39.557" height="0.593" transform="translate(225.291 154.018)"/><rect class="h" width="3.238" height="3.238" transform="translate(223.251 152.701)"/><rect class="b" width="31.112" height="2.669" transform="translate(275.037 151.076)"/><rect class="b" width="42.036" height="2.669" transform="translate(275.037 156.651)"/><rect class="b" width="22.311" height="2.669" transform="translate(275.037 162.237)"/><rect class="j" width="6.488" height="6.488" transform="translate(261.61 151.076)"/><rect class="b" width="36.983" height="2.669" transform="translate(275.037 172.675)"/><rect class="b" width="29.25" height="2.669" transform="translate(275.037 178.25)"/><rect class="b" width="42.036" height="2.669" transform="translate(275.037 183.837)"/><rect class="f" width="6.488" height="6.488" transform="translate(261.61 172.675)"/><rect class="b" width="36.983" height="2.669" transform="translate(275.037 194.274)"/><rect class="b" width="29.25" height="2.669" transform="translate(275.037 199.849)"/><rect class="b" width="42.036" height="2.669" transform="translate(275.037 205.436)"/><rect class="e" width="6.488" height="6.488" transform="translate(261.61 194.274)"/></g><g transform="translate(200.751 301.699)"><path class="b" d="M255.92,338.62l2.3,13.842,15.645,84.44h2.515l-11.375-84.44-1.672-13.842Z" transform="translate(-159.927 -249.199)"/><path class="f" d="M263.333,338.62H255.92l2.3,13.842h6.785Z" transform="translate(-159.927 -249.199)"/><path class="b" d="M214.52,436.9h2.526l15.633-84.44,2.313-13.842h-7.413l-1.684,13.842Z" transform="translate(-167.633 -249.199)"/><path class="f" d="M225.794,338.62l-1.684,13.842h6.785l2.313-13.842Z" transform="translate(-165.848 -249.199)"/><path class="b" d="M174.99,436.9H177.5l15.633-84.44,2.313-13.842h-7.413l-1.684,13.842Z" transform="translate(-174.99 -249.199)"/><path class="f" d="M184.57,352.462h6.785l2.313-13.842h-7.413Z" transform="translate(-173.207 -249.199)"/><path class="b" d="M178.35,359.163H292.917V347.089H250.039L235.616,263.23H182.727Z" transform="translate(-174.365 -263.23)"/><path class="f" d="M178.35,359.163H184.6l4.068-95.933h-5.942Z" transform="translate(-174.365 -263.23)"/></g><g transform="translate(402.359 144.308)"><path class="k" d="M446.139,362.44s-.344,40.779-.344,40.8c0,7.8-.19,14.648-.6,18.171a5.491,5.491,0,0,1-.581,2.372h0c-2.372,1.566-64.667,3.179-66.862,2.5s-.439-6.974,1.933-8.967,25.964-13.285,25.964-13.285l.735-40.767Z" transform="translate(-339.048 -87.374)"/><path class="c" d="M445.846,389.79l-.071,8.3c0,7.8-.19,14.649-.6,18.171a11.182,11.182,0,0,1-.581,2.372h0c-2.372,1.566-64.667,3.179-66.862,2.5s-.439-6.974,1.933-8.967,25.964-13.285,25.964-13.285v-8.5Z" transform="translate(-339.052 -82.283)"/><path class="h" d="M397.89,397.687c4.151-.688,9.192.059,12.3,3.072.119.119,0,.285-.19.237a57.783,57.783,0,0,0-12.1-2.787.261.261,0,0,1-.012-.522Z" transform="translate(-335.16 -80.858)"/><path class="h" d="M395.34,399.147c4.151-.688,9.2.059,12.3,3.072.119.119,0,.285-.19.237a58.549,58.549,0,0,0-12.1-2.787.261.261,0,0,1-.012-.522Z" transform="translate(-335.635 -80.586)"/><path class="h" d="M392.781,400.607c4.151-.676,9.2.059,12.3,3.072.119.119,0,.285-.178.249a58.121,58.121,0,0,0-12.11-2.811.261.261,0,0,1-.012-.51Z" transform="translate(-336.101 -80.314)"/><path class="l" d="M377.711,420.095c2.194.676,64.525-.949,66.861-2.515.9-.581,1.186-9.679,1.186-20.674v-.356l-40.233.6v.676s-23.58,11.292-25.964,13.284S375.517,419.418,377.711,420.095Z" transform="translate(-339.059 -81.025)"/><path class="l" d="M445.835,396.55v.356c0,11-.332,20.093-1.186,20.674s-14.566,1.435-29.167,1.957c-17.472.617-36.5.925-37.695.557-2.194-.676-.427-6.986,1.933-8.979s25.964-13.285,25.964-13.285v-.676l13.415-.2Z" transform="translate(-339.04 -81.025)"/><path class="h" d="M378.115,414.566c10.509-.534,52.913-1.672,63.327-1.4h0c-10.39.759-52.806,1.566-63.315,1.518C377.9,414.744,377.9,414.578,378.115,414.566Z" transform="translate(-338.823 -77.94)"/><path class="h" d="M418.98,396.89c-.984,6.737-2.479,16.665-3.558,22.536-17.471.617-36.5.925-37.695.557-2.194-.676-.427-6.986,1.933-8.979s25.964-13.285,25.964-13.285v-.676Z" transform="translate(-339.051 -80.962)"/><path class="i" d="M447.727,429.857l-46.994.427S388.2,264.014,399.345,220.46h33.721s9.062,18.492,3.879,39.308Z" transform="translate(-335.702 -113.799)"/><path class="h" d="M443.119,390.49a35.3,35.3,0,0,0-3.713-.285c-1.376-.095-2.752-.19-4.14-.249-2.645-.107-5.3-.154-7.959-.166-5.349,0-10.675,0-16.06.178-3.048.095-6.1.214-9.133.38a.095.095,0,0,0,0,.19c5.314.19,10.675.261,15.93.368s10.675.2,15.93.095c1.518,0,3.036,0,4.567-.119s3.072,0,4.555-.214C443.19,390.656,443.226,390.514,443.119,390.49Z" transform="translate(-334.344 -82.283)"/><path class="h" d="M403.182,379.8c-.534-12.146-.913-24.292-1.257-36.449q-1-36.438-.522-72.923c.178-13.64.534-27.281.949-40.909,0-.154-.237-.142-.249,0-1.293,24.4-1.779,48.856-1.8,73.3s.474,48.631,1.672,72.911c.676,13.629,1.506,27.281,2.787,40.85a.1.1,0,0,0,.19,0C404.4,404.328,403.7,392.063,403.182,379.8Z" transform="translate(-334.664 -112.134)"/><path class="k" d="M414.4,366.9s-.344,40.779-.344,40.814c0,7.793-.19,14.637-.6,18.159v.059a5.49,5.49,0,0,1-.581,2.372h0c-2.372,1.566-64.667,3.179-66.862,2.515s-.439-6.986,1.933-8.979S373.9,408.557,373.9,408.557l.735-40.767Z" transform="translate(-344.955 -86.544)"/><path class="c" d="M414.126,394.25s-.071,8.3-.071,8.374c0,7.793-.19,14.637-.6,18.159v.059a11.179,11.179,0,0,1-.581,2.372h0c-2.372,1.566-64.667,3.179-66.862,2.515s-.439-6.986,1.933-8.979S373.9,403.466,373.9,403.466v-8.5Z" transform="translate(-344.955 -81.453)"/><path class="h" d="M366.15,402.147c4.151-.688,9.2.059,12.3,3.072.119.119,0,.285-.19.237a57.8,57.8,0,0,0-12.1-2.787.261.261,0,1,1-.012-.522Z" transform="translate(-341.067 -80.028)"/><path class="h" d="M363.591,403.607c4.151-.676,9.2.059,12.3,3.072.119.119,0,.285-.178.237a58.825,58.825,0,0,0-12.11-2.8.261.261,0,0,1-.012-.51Z" transform="translate(-341.533 -79.755)"/><path class="h" d="M361.045,405.036c4.151-.676,9.192.059,12.288,3.072.119.119,0,.3-.178.249a58.116,58.116,0,0,0-12.11-2.752.285.285,0,0,1,0-.569Z" transform="translate(-342.023 -79.489)"/><path class="l" d="M345.968,424.556c2.194.676,64.525-.949,66.862-2.515.9-.581,1.186-9.679,1.186-20.674V401l-40.233.593v.676s-23.58,11.292-25.964,13.285S343.821,423.88,345.968,424.556Z" transform="translate(-344.963 -80.197)"/><path class="h" d="M346.375,419.026c10.509-.522,52.913-1.672,63.327-1.4.083,0,.083.059,0,.059-10.39.759-52.806,1.566-63.315,1.518C346.161,419.263,346.161,419.038,346.375,419.026Z" transform="translate(-344.73 -77.11)"/><path class="i" d="M417.882,263.675s-3.309,67.443-3.428,69.044c0,.617-1.542,104.687-1.542,104.687l-46.982.427s6.429-97.558,7.117-107.083c.083-1.1,2.74-66.7,13.889-110.25h50.5s-.439,22.809-10.806,39.308A84.8,84.8,0,0,0,417.882,263.675Z" transform="translate(-341.061 -113.791)"/><path class="h" d="M406.665,259.093c2.491-1.352,5.029-2.574,7.639-3.689s5.266-2.123,7.864-3.274c.095,0,.178.095.083.142-2.55,1.317-5.053,2.728-7.639,3.974a61.909,61.909,0,0,1-7.828,3.131.154.154,0,1,1-.119-.285Z" transform="translate(-333.497 -107.905)"/><path class="h" d="M410.3,256.85c0-.095.166-.071.154,0-1.7,12.644-3.985,162.913-4.377,166.507a.213.213,0,0,1-.427,0C405.569,417,405.865,298.9,410.3,256.85Z" transform="translate(-333.67 -107.038)"/><path class="h" d="M392.792,224.546c-1.293,6.5-2.194,13.047-3.167,19.642s-1.91,13.142-2.787,19.725q-2.6,19.429-4.626,38.917-4.08,39.438-5.931,79.067-1.056,22.275-1.281,44.6c0,.119.19.107.19,0,.9-26.427,2.182-52.842,4.187-79.209s4.638-52.593,7.852-78.782q1.34-10.889,2.8-21.753c1.008-7.378,2.194-14.732,3.048-22.133C393.041,224.439,392.792,224.368,392.792,224.546Z" transform="translate(-339.373 -113.058)"/><path class="h" d="M409.837,398.01a35.043,35.043,0,0,0-3.713-.3c-1.376-.095-2.752-.19-4.128-.249-2.657-.107-5.3-.154-7.959-.154-5.361,0-10.675,0-16.072.178-3.036.095-6.085.213-9.133.38-.119,0-.107.178,0,.178,5.3.19,10.616.273,15.93.368s10.616.2,15.918.107c1.53,0,3.048,0,4.567-.13s3.084,0,4.567-.213C409.909,398.129,409.944,398.022,409.837,398.01Z" transform="translate(-340.536 -80.884)"/><path class="k" d="M373.9,218.22c4.922-2.479,24.137-11.482,24.908-12.869s8.172-28.194,10.153-33.14,7.852-2.218,7.817,5.587.5,34.824-.629,39.142-22.2,21.35-26.095,25C387.125,244.848,371.148,219.6,373.9,218.22Z" transform="translate(-339.637 -123.242)"/><path class="k" d="M398.437,230.97a86.969,86.969,0,0,1-8.587,7.52c-2.455,1.732-9.679,6.512-11.861,3.985-1.483-1.72,2.372-5.017,5.136-7.425,1.435-1.257,2.894-3.713,2.028-4.614-1.495-1.578-5.148,1.767-7.4,4.377-4.377,5.041-9.691,13.225-13.972,11.6-1.613-.617-.807-3.025.688-5.622-2.728,3.369-5.812,6.417-7.639,5.8a1.933,1.933,0,0,1-1.257-2.372,2.574,2.574,0,0,1-2.823.5c-1.53-.795-1.577-2.728-.961-4.946a1.412,1.412,0,0,1-1.257-.32c-3.63-2.823,4.744-17.389,8.564-19.784a97.192,97.192,0,0,1,24.493-10.426C389.708,211.458,398.449,230.958,398.437,230.97Z" transform="translate(-344.093 -115.887)"/><path class="h" d="M374.362,223.15a21.053,21.053,0,0,0-7.046,5.931c-2.182,2.93-3.558,6.358-5.4,9.489,0,.083.095.166.13.071.854-1.554,1.862-3.048,2.764-4.578s1.732-3.025,2.716-4.448a20.875,20.875,0,0,1,6.868-6.369S374.4,223.138,374.362,223.15Z" transform="translate(-341.807 -113.298)"/><path class="h" d="M371.667,219.451a50.916,50.916,0,0,0-8.3,6.512c-2.692,2.764-4.306,6.334-5.931,9.785q-1.459,3.12-2.764,6.286c0,.095.083.166.13.071,1.625-3.558,3.345-7.117,5.172-10.5a27.589,27.589,0,0,1,6.761-8.386c1.6-1.317,3.286-2.526,4.982-3.713C371.738,219.486,371.667,219.427,371.667,219.451Z" transform="translate(-343.157 -113.988)"/><path class="h" d="M367.335,216.636a26.677,26.677,0,0,0-7.6,5.776A47.307,47.307,0,0,0,353.8,232.53c-.866,1.922-1.661,3.867-2.432,5.836,0,.071.107.13.142,0a108.836,108.836,0,0,1,6.275-12.632,21.918,21.918,0,0,1,4.116-5.266,40.636,40.636,0,0,1,5.432-3.867S367.347,216.624,367.335,216.636Z" transform="translate(-343.771 -114.517)"/><path class="j" d="M376.66,214.334l23.853,24s14.447-13.961,16-21.006,1.6-34.148,0-42.309-6.868-10.841-10.4.4-7.828,28.858-8.161,29.511S376.66,214.334,376.66,214.334Z" transform="translate(-339.064 -123.579)"/><path class="h" d="M403.439,223.883a65.032,65.032,0,0,0-4.744-4.839c-1.613-1.589-3.274-3.108-4.946-4.638-3.345-3.048-6.785-6.014-10.307-8.86-.107-.095-.273,0-.166.154,3.167,3.286,6.453,6.488,9.8,9.584,1.661,1.53,3.333,3.048,5.053,4.519a63.166,63.166,0,0,0,5.171,4.258C403.416,224.1,403.522,223.943,403.439,223.883Z" transform="translate(-337.839 -116.582)"/><path class="k" d="M398.622,181.746c2.728.213,8.564-4.744,10.912-8.92a70.482,70.482,0,0,0-.593-7.117c-.2-2.277-.368-4.816-.344-7.117,0-.486-1.637.38-1.637.38l-3.013.712-9.987,2.372a36.938,36.938,0,0,1,1.34,8.955,5.928,5.928,0,0,1-.107.949v.166C394.861,173.882,394.363,181.414,398.622,181.746Z" transform="translate(-335.844 -125.341)"/><path class="h" d="M395.19,171.745v.166a10.039,10.039,0,0,0,1.506.083c9.833-.142,11.161-12.644,11.161-12.644l-3.891.142-9.987,2.372a36.936,36.936,0,0,1,1.34,8.955,5.925,5.925,0,0,1-.13.925Z" transform="translate(-335.84 -125.173)"/><path class="m" d="M403.23,165.5h0" transform="translate(-334.119 -124.028)"/><path class="k" d="M410.279,143c2.159,4.97,1.186,20.164-2.147,23.888-4.745,5.409-13.391,6.856-18.207.937-4.661-5.729-2.977-25.49.771-28.965C396.211,133.738,407.147,135.659,410.279,143Z" transform="translate(-337.122 -129.522)"/><path class="k" d="M387.982,145.41s-1.186,5.693-2.372,11.351l1.922-.249-.439,2.562a5.029,5.029,0,0,0,4.021-.807Z" transform="translate(-337.398 -127.767)"/><path class="h" d="M389.376,150.62a.074.074,0,0,1,.071.095c-.142,1.02-.13,2.206.759,2.645h0C389.08,153.135,389.08,151.557,389.376,150.62Z" transform="translate(-336.728 -126.797)"/><path class="h" d="M390.4,149.8c1.649,0,1.423,3.357-.107,3.309S389.013,149.764,390.4,149.8Z" transform="translate(-336.721 -126.95)"/><path class="h" d="M391.783,149.182a8.481,8.481,0,0,1-1.186-.534,2.242,2.242,0,0,1-1.186-.795.688.688,0,0,1,.178-.83,1.72,1.72,0,0,1,1.755-.071,2.55,2.55,0,0,1,1.388,1.186.747.747,0,0,1-.949,1.044Z" transform="translate(-336.704 -127.519)"/><path class="h" d="M390.443,158.73c-.261.225-.534.534-.9.546a2.917,2.917,0,0,1-1.091-.332h0a1.364,1.364,0,0,0,1.269.641,1.091,1.091,0,0,0,.866-.842Z" transform="translate(-336.87 -125.288)"/><path class="h" d="M391.063,156.106a3.641,3.641,0,0,1-3.558,1.186c-.071,0-.107-.095-.083-.095a6.3,6.3,0,0,0,3.558-1.186C391.1,156,391.134,156,391.063,156.106Z" transform="translate(-337.062 -125.795)"/><path class="h" d="M389.347,143.315c-3.44-1.032-5.836-8.623-4.638-11.434s4.021,1.625,4.021,1.625.285-2.657,1.495-2.953,3.464,3.357,3.464,3.357,11.553.735,14.02,1.625,3.214,4.211,3.214,4.211a7.71,7.71,0,0,1,4.282,4.911c1.186,3.843-2.633,18.278-5.017,20.235s-8.991-9.026-8.991-9.026-1.779.237-2.515-3.321c-1.079-5.278-1.376-8.635-4-9.169A26.64,26.64,0,0,0,389.347,143.315Z" transform="translate(-337.624 -130.536)"/><path class="k" d="M398.174,153.088s2.918-5.124,5.219-4.128.415,8.208-2.064,9.406A2.621,2.621,0,0,1,397.7,157.3Z" transform="translate(-335.148 -127.13)"/><path class="h" d="M402.578,150.67s.059,0,0,.071a6.607,6.607,0,0,0-3.025,4.448,1.447,1.447,0,0,1,2.123-.6v.107a1.589,1.589,0,0,0-1.708.724,7.281,7.281,0,0,0-.712,1.506c-.071.178-.368.119-.332-.083h0C398.652,154.513,400.135,151.133,402.578,150.67Z" transform="translate(-334.926 -126.788)"/><path class="k" d="M406.984,184.511c-9.086,17.483-25.158,37.126-40.826,44.456-9.548,4.448-16.606,2.052-19.441-1.495-4.116-5.088,3.9-37.79,10.082-47.646,2.016-3.191,31.883,5.183,29.878,8.682s7.117-6.974,16.973-14.838C413.768,165.545,412.5,173.955,406.984,184.511Z" transform="translate(-344.847 -123.113)"/><path class="k" d="M363.1,164.829c3.558-2.657,7.508-6,12.015-7.295s10.046,3.487,10.568,5.171,2.076,12.8-2.372,14.174-4.27-7.579-4.745-8.457-1-2.016-1.815-1.672-13.474,11.861-13.474,11.861Z" transform="translate(-341.588 -125.551)"/><path class="k" d="M363.5,165.672c.249-.071,10.806-8.5,15.325-9.8s10.046,3.487,10.568,5.183,2.076,12.786-2.372,14.162-4.27-7.579-4.744-8.457-.984-2.016-1.8-1.661S367,176.964,367,176.964Z" transform="translate(-341.513 -125.86)"/><path class="h" d="M383.737,173.694a5.632,5.632,0,0,1-1.566-2.372,9.561,9.561,0,0,1-.712-2.918,16.2,16.2,0,0,0-.214-2.633,5.254,5.254,0,0,0-1.352-2.182c-.546-.522-1.186-.107-1.637.273a20.737,20.737,0,0,0-2.1,1.85L374,167.8a23.915,23.915,0,0,0-2.159,2.23c0,.059,0,.154.095.107a24.454,24.454,0,0,0,1.957-1.72q1.091-1,2.206-1.957c.688-.6,1.352-1.245,2.052-1.839.249-.213.724-.688,1.079-.723s.795.771.949,1.02a4.353,4.353,0,0,1,.593,2.467,12.71,12.71,0,0,0,.285,2.6,7.035,7.035,0,0,0,.9,2.277,10.087,10.087,0,0,0,1.66,1.6C383.7,173.9,383.82,173.754,383.737,173.694Z" transform="translate(-339.961 -124.43)"/><path class="k" d="M354.92,183.522s5.349-12.917,10.414-19.286c4.472-5.646,10.224-10.153,15.064-11.7s16.843,11.031,12.857,13.047c-4.2,2.088-9.8-4.317-11.529-2.728-1.933,1.779-4.2,4.744-3.286,7.235s4.744,6.334,8.837,4.934,3.665-6.974,7.295-8.825,4.567,4.614,3.108,9.489a26.794,26.794,0,0,1-8.54,12.217c-3.191,2.455-12.893,10.675-12.893,10.675Z" transform="translate(-343.11 -126.464)"/><path class="h" d="M388.1,164.462a8.837,8.837,0,0,1-4.543-1.056,36.4,36.4,0,0,0-4.151-1.969.984.984,0,0,0-.854.083,5.192,5.192,0,0,0-.807.688,13.525,13.525,0,0,0-1.423,1.755c-.807,1.186-1.589,2.693-1.186,3.985a8.077,8.077,0,0,0,2.372,3.63,7.022,7.022,0,0,0,3.926,1.862,6.133,6.133,0,0,0,2.171-.261,5.551,5.551,0,0,0,1.9-1.186,10.475,10.475,0,0,0,2.479-3.843,10.047,10.047,0,0,1-2.171,4.163,5.717,5.717,0,0,1-2.016,1.34,6.357,6.357,0,0,1-2.372.415,7.318,7.318,0,0,1-4.412-1.933,8.872,8.872,0,0,1-2.752-4,3.9,3.9,0,0,1,.2-2.55,10.082,10.082,0,0,1,1.186-2.135,14.229,14.229,0,0,1,1.542-1.838,6.244,6.244,0,0,1,.984-.795,1.815,1.815,0,0,1,1.4-.095,11.862,11.862,0,0,1,2.159,1.079l2.016,1.186A9.252,9.252,0,0,0,388.1,164.462Z" transform="translate(-339.534 -124.935)"/><path class="j" d="M353.112,181.727,387.4,188.12l-.474,1.079s14.056-14.577,20.164-19.168c7.117-5.361,6.761,2.266,3.4,10.118s-23.722,43.388-42.546,53.067c-6.571,3.369-20.686-1.032-22.252-6.037C342.852,218.212,353.112,181.727,353.112,181.727Z" transform="translate(-344.919 -123.518)"/><path class="h" d="M384.63,185.753a45.93,45.93,0,0,0-4.424,3.89c-1.827,1.72-3.618,3.463-5.409,5.219q-5.373,5.231-10.675,10.592c-.439.451-.866.913-1.293,1.364-.747.332-1.459.724-2.182,1.091s-1.732.9-2.621,1.328a.095.095,0,0,0,.083.166c.878-.38,1.767-.747,2.621-1.186q.735-.356,1.459-.747c-1.329,1.376-2.657,2.752-3.962,4.151-.071.083,0,.2.142.13,7.342-6.654,14.459-13.593,21.35-20.721.984-1.02,4.116-4.045,4.97-5.171C384.784,185.812,384.713,185.693,384.63,185.753Z" transform="translate(-342.539 -120.262)"/><path class="h" d="M379.8,190.533a65.692,65.692,0,0,0-6.571-1.649c-2.206-.51-4.424-.949-6.642-1.364-4.448-.854-8.931-1.578-13.415-2.171-.154,0-.213.19,0,.225,4.412,1.186,8.884,2.147,13.356,3.036,2.218.439,4.436.866,6.678,1.186a62.744,62.744,0,0,0,6.63.925C379.907,190.759,379.907,190.569,379.8,190.533Z" transform="translate(-343.461 -120.334)"/><path class="h" d="M400.562,184.18c-5.16,8.113-10.414,16.155-16.084,23.924-1.661,2.265-3.274,4.567-4.958,6.832,0,.095.059.225.142.13a196.276,196.276,0,0,0,16.784-23.628c1.459-2.372,2.87-4.744,4.187-7.212Z" transform="translate(-338.532 -120.551)"/><path class="j" d="M443.7,251.182c-.154.166-64.857,1.411-65.462.759-.842-.925,9.738-65.794,20.022-79.933,2.574-3.558,11.754-5.931,15.574-2.372,11.078,10.4,13.4,19.132,16.285,26.273a208.956,208.956,0,0,1,7.046,23.568C441.031,234.73,444.221,250.565,443.7,251.182Z" transform="translate(-338.779 -123.586)"/><path class="h" d="M392.758,180.792c-1.9,4.946-3.558,10-5.088,15.076a157.369,157.369,0,0,0-3.9,15.265c-.285,1.459-.557,2.918-.807,4.377s-.451,3.036-.83,4.519c0,.119.154.154.178,0a65.5,65.5,0,0,1,1.85-7.662c.676-2.586,1.388-5.16,2.04-7.757,1.257-5.1,2.645-10.165,4.116-15.206.854-2.882,1.756-5.741,2.645-8.611C392.995,180.709,392.805,180.673,392.758,180.792Z" transform="translate(-338.046 -121.196)"/></g><g transform="translate(58.156 238.468)"><path class="b" d="M142.84,354.52l2.5,15.064,17.021,91.889h2.74l-12.371-91.889-1.827-15.064Z" transform="translate(-38.379 -183.008)"/><path class="f" d="M150.906,354.52H142.84l2.5,15.064h7.39Z" transform="translate(-38.379 -183.008)"/><path class="b" d="M97.79,461.472h2.74l17.021-91.889,2.5-15.064h-8.066l-1.827,15.064Z" transform="translate(-46.763 -183.008)"/><path class="f" d="M110.047,354.52l-1.827,15.064h7.39l2.5-15.064Z" transform="translate(-44.822 -183.008)"/><path class="b" d="M54.77,461.472h2.74l17.009-91.889,2.515-15.064H68.968l-1.827,15.064Z" transform="translate(-54.77 -183.008)"/><path class="f" d="M65.2,369.584h7.378l2.515-15.064H67.027Z" transform="translate(-52.829 -183.008)"/><path class="b" d="M58.43,376.87H183.1V363.728H136.429l-15.68-91.248H63.186Z" transform="translate(-54.089 -198.277)"/><path class="f" d="M58.43,376.87h6.8l4.436-104.39H63.186Z" transform="translate(-54.089 -198.277)"/><path class="n" d="M292.709,445.618c-2.313.795-68.4,1.02-70.93-.569-.973-.593-1.566-10.224-1.945-21.872L185.78,383.145l50.671-.285,26,40.043s25.336,11.233,27.933,13.273S295.01,444.847,292.709,445.618Z" transform="translate(-30.387 -177.734)"/><path class="h" d="M287.343,438.679c-2.313.795-68.4,1.02-70.93-.569-.866-.522-1.423-8.137-1.8-17.97,6.346,1.1,59.9,10.307,62.437,8.9s-5.527-6.5-5.527-6.5h.095c6.168,2.847,12.205,5.753,13.4,6.69C287.58,431.266,289.644,437.908,287.343,438.679Z" transform="translate(-25.021 -170.795)"/><path class="h" d="M246.18,426.965s6.8-7.888,19.464-4.685" transform="translate(-19.145 -170.539)"/><path class="h" d="M284.879,438.444l-25.751,2.526-25.419,2.5s-51-72.507-54.1-75.674c-7.117-7.117-64.394-18.669-79.85-34.03-16.368-16.262-9.228-36.829-9.228-36.829h42.7s5.409,13.711,7.686,14.423c24.659,7.662,57.5,17.294,68.178,26.711C228.242,355,284.879,438.444,284.879,438.444Z" transform="translate(-48.402 -193.725)"/><path class="i" d="M254.045,409.62c-7.247.676-5.183.38-12.407,1.186-3.558.368-26.794,2.847-30.033,3.784-.083,0,0,.142,0,.142,3.369.166,26.569-2.716,30.1-3.155,7.223-.913,5.136-.724,12.348-1.708a.125.125,0,1,0-.012-.249Z" transform="translate(-25.587 -172.753)"/><path class="i" d="M234.4,430.236c-8.374-11.446-16.938-23.272-25.5-34.587l-12.846-16.973q-3.226-4.258-6.452-8.481a49.5,49.5,0,0,0-6.108-7.057,30.306,30.306,0,0,0-7.8-4.745c-2.977-1.328-6.037-2.467-9.121-3.558-6.405-2.206-12.929-4-19.417-5.931-12.039-3.558-24.232-7.461-34.6-14.72-9.323-6.536-17.1-16.238-19.322-27.613a25.835,25.835,0,0,1-.451-4.377.095.095,0,1,0-.19,0,38.1,38.1,0,0,0,4.2,15.847A46.094,46.094,0,0,0,107.31,331.3c9.252,8.2,20.959,12.929,32.606,16.606,6.452,2.028,13.047,3.784,19.464,5.753,3.286,1.008,6.536,2.064,9.75,3.25a67.532,67.532,0,0,1,8.979,3.855,25.869,25.869,0,0,1,7.4,6c2.194,2.574,4.14,5.373,6.168,8.077q6.405,8.5,12.846,16.985c8.623,11.4,17.187,22.857,25.94,34.16,1.091,1.411,2.194,2.8,3.286,4.2C234.047,430.64,234.758,430.723,234.4,430.236Z" transform="translate(-47.731 -192.765)"/><path class="n" d="M195.194,457.807c-2.313.747-68.4-.107-70.894-1.744-.961-.593,9.157-64.964,9.157-64.964l44.219.439-12.348,43.068s25.146,11.636,27.7,13.723S197.5,457.072,195.194,457.807Z" transform="translate(-41.841 -176.2)"/><path class="n" d="M195.194,457.807c-2.313.747-68.4-.107-70.894-1.744-.308-.19.534-7.046,1.827-16.238,2.692-19.191,7.318-48.726,7.318-48.726l44.219.439-12.347,43.068s7.816,3.618,15.17,7.176h0c5.836,2.823,11.375,5.61,12.5,6.536C195.562,450.406,197.5,457.072,195.194,457.807Z" transform="translate(-41.841 -176.2)"/><path class="h" d="M195.194,450.162c-2.313.747-68.4-.107-70.894-1.744-.308-.19.534-7.046,1.827-16.238,6.524,1.115,22.109,3.76,35.773,5.836l1.589.237c11.624,1.732,21.492,2.977,22.536,2.372,2.621-1.471-5.088-6.239-5.515-6.488,5.836,2.823,11.375,5.61,12.5,6.535C195.562,442.76,197.5,449.426,195.194,450.162Z" transform="translate(-41.841 -168.554)"/><path class="h" d="M155.28,438.651s6.8-7.9,19.452-4.744Z" transform="translate(-36.063 -168.371)"/><path class="h" d="M177.682,451.726,131.3,451.5s21.718-82.174,20.674-88.378c-.486-2.87-52.011,1.447-70.515-17.958-15.918-16.7-1.257-47.978-1.257-47.978L129.834,296s-4.578,13.427-7.7,21.753c0,0,68.048,4.8,75.686,19.725C205.971,353.42,177.682,451.726,177.682,451.726Z" transform="translate(-51.182 -193.9)"/><path class="i" d="M121.217,298.812c-.5,2.633-.925,5.278-1.53,7.888-.285,1.186-.546,2.479-.913,3.689a2.372,2.372,0,0,1-.83,1.352,2.941,2.941,0,0,1-1.649.368,1.744,1.744,0,0,1-1.981-1.922c0-2.443,1.637-10.77,1.732-11.458,0-.13-.427-.19-.463,0-1.186,5.231-2.811,11.861-1.815,13.178a3.558,3.558,0,0,0,4.567.807,3.333,3.333,0,0,0,1.186-2.04c.3-1.186.474-2.372.688-3.475.5-2.752,1.032-5.492,1.388-8.3a.225.225,0,0,0-.38-.083Z" transform="translate(-43.847 -193.415)"/><path class="i" d="M115.34,310.823a9.487,9.487,0,0,0-.2,1.008c-.071.344-.142.676-.225,1.008s-.154.676-.249,1.02-.142.664-.214,1.008a.13.13,0,0,0,.237.083A9.585,9.585,0,0,0,115.1,314c.107-.344.213-.676.308-1.02s.166-.676.237-1.02a4.472,4.472,0,0,0,.178-1.056C115.826,310.669,115.423,310.574,115.34,310.823Z" transform="translate(-43.662 -191.168)"/><path class="i" d="M159.152,360.008c-.949-2.562-3.665-2.918-6.049-3.072q-5.124-.332-10.236-.866-10.212-1.068-20.33-2.942a151.438,151.438,0,0,1-18.978-4.4A40.789,40.789,0,0,1,88,340.2a24.066,24.066,0,0,1-7.864-14.34,42.166,42.166,0,0,1,.273-10.153c.391-3.38.878-6.737,1.554-10.07.344-1.649.724-3.274,1.186-4.887a.095.095,0,0,0-.178,0,124.412,124.412,0,0,0-3.558,19.784,26.166,26.166,0,0,0,.724,9.109,23.485,23.485,0,0,0,3.558,7.117c7.022,9.726,19.108,13.249,30.282,15.657q10.035,2.171,20.164,3.558,4.928.658,9.88,1.186c3.3.356,6.678.5,10.011.795a5.124,5.124,0,0,1,3.831,1.554,5.278,5.278,0,0,1,.6,4c-.249,1.554-.712,3.084-1.091,4.614s-.818,3.262-1.186,4.887q-2.562,10.189-5.088,20.413c-3.357,13.557-6.8,27.115-9.928,40.731-.391,1.684-.771,3.369-1.127,5.065a.122.122,0,1,0,.237.059c1.969-6.725,3.558-13.557,5.326-20.354s3.463-13.593,5.16-20.389,3.392-13.51,5.065-20.271q1.186-5.112,2.515-10.212C158.926,365.547,160.089,362.511,159.152,360.008Z" transform="translate(-50.207 -193.027)"/><path class="i" d="M168.354,420.781c-5.373-.332-10.758-.463-16.143-.641s-10.746-.249-16.119-.154c-3.06,0-6.109.261-9.169.308-.119,0-.107.178,0,.178,5.385,0,10.758.427,16.143.451s10.746,0,16.119,0c3.048,0,6.108.107,9.169.083C168.544,420.983,168.544,420.793,168.354,420.781Z" transform="translate(-41.357 -170.832)"/><path class="i" d="M101.558,303.125a3.356,3.356,0,0,1-.273.676.1.1,0,0,0,0,.119c-1.1,3.677-2.491,7.461-5.717,9.786a17.935,17.935,0,0,1-5.456,2.621c-2.277.664-4.65.854-6.939,1.483a.249.249,0,0,0,.083.474,26.319,26.319,0,0,0,7.639-.783,15.418,15.418,0,0,0,5.931-2.752c3.558-2.882,4.567-7.223,5.041-11.6C101.854,302.995,101.605,302.995,101.558,303.125Z" transform="translate(-49.511 -192.592)"/><path class="i" d="M188.85,331.628c-2.147-2.882-5.3-4.436-8.647-5.527-22.536-7.4-50.161-10.675-65.237-11.921-.119,0-.166.166,0,.178,16.3,2.455,58.013,8.042,69.8,15.076,5.053,3.013,7.271,10.236,5.859,22.121-1.127,9.489-2.372,19.69-3.926,29.072,0,.332.166.308.237,0,1.791-8.469,3.333-17.732,4.424-26.32C192.243,346.881,193.642,338.057,188.85,331.628Z" transform="translate(-43.586 -190.516)"/><path class="h" d="M101.169,216.7c-5.338,6.773-5.931,16.926-5.931,16.926s-4.6,10.675-2.372,15.93a9.964,9.964,0,0,0,7.117,5.931l-.854-2.942s2.372,3.63,9.121,4.4,15.087-2.277,19.3-5.088a17.282,17.282,0,0,0,5.931-6.595l-1.186,4.567a13.047,13.047,0,0,0,9.24-8.16c2.942-7.188-9.015-15.562-10.177-17.531s-4.163-17.009-19.82-12.466C111.523,211.685,104.846,212.053,101.169,216.7Z" transform="translate(-47.793 -209.753)"/><path class="h" d="M98.033,252.159a10.225,10.225,0,0,1-4.744-3.914,9.323,9.323,0,0,1-1.732-5.859,20.627,20.627,0,0,1,2.182-7.117c1.044-2.372,2.254-4.614,3.25-6.974,0-.13-.142-.213-.225-.107a58.117,58.117,0,0,0-3.309,5.717,26.452,26.452,0,0,0-2.491,5.741,10.07,10.07,0,0,0,0,5.682,9.608,9.608,0,0,0,2.42,4,21.351,21.351,0,0,0,4.578,3C98.057,252.361,98.2,252.195,98.033,252.159Z" transform="translate(-48.11 -206.53)"/><path class="h" d="M137.02,234.007c-2.586-5.361-8.042-8.3-11.683-12.8-1.981-2.443-3.618-5.207-6.049-7.235,0-.059-.154,0-.095.107A37.956,37.956,0,0,1,124.1,220.5a40.326,40.326,0,0,0,5.539,6.014c3.63,3.416,7.959,7.449,7.876,12.846,0,2.5-1.186,5.385-3.558,6.453-.095,0,0,.2.083.142a7.888,7.888,0,0,0,3.843-4.934A10.059,10.059,0,0,0,137.02,234.007Z" transform="translate(-42.782 -209.171)"/><path class="h" d="M136.653,234.263a10.343,10.343,0,0,0-2.123-5.931,14.767,14.767,0,0,0-5.088-3.713c-2.159-1.091-4.412-2.088-5.931-4.045,0-.083-.178,0-.119.107,2.443,3.226,6.464,4.389,9.406,7,3.369,2.989,3.95,7.852,2.372,11.861a17.068,17.068,0,0,1-4.638,6.453s0,.083,0,0C134.055,243.195,136.926,239,136.653,234.263Z" transform="translate(-42 -207.944)"/><path class="n" d="M123.346,263.662c8.8,7.947,40.162,32.2,51.655,29.4,7.532-1.838,33.793-17.9,35.37-26.735.688-3.843-12.442-21.955-15.728-19.381s-23.971,16.238-27.067,16.772-34.824-13.047-45.25-15.111C104.344,244.957,118.613,259.38,123.346,263.662Z" transform="translate(-43.84 -203.076)"/><path class="n" d="M185.031,240.555c3.819-2.372,8.018-5.3,12.632-6.18s9.691,4.389,10.058,6.12.9,12.929-3.7,13.889-3.558-7.935-3.926-8.848-.807-2.1-1.649-1.827-14.506,10.675-14.506,10.675Z" transform="translate(-30.729 -205.388)"/><path class="n" d="M185.22,241.378c.261,0,11.541-7.484,16.155-8.362s9.691,4.389,10.046,6.132.9,12.917-3.689,13.878-3.558-7.935-3.938-8.848-.795-2.1-1.649-1.827-14.494,10.675-14.494,10.675Z" transform="translate(-30.491 -205.641)"/><path class="h" d="M204.6,251.348a5.611,5.611,0,0,1-1.328-2.55,9.727,9.727,0,0,1-.451-2.965,16.443,16.443,0,0,0,0-2.645,5.171,5.171,0,0,0-1.186-2.289c-.486-.581-1.115-.214-1.661.107a23.433,23.433,0,0,0-2.254,1.661c-.795.617-1.566,1.257-2.372,1.886a25.5,25.5,0,0,0-2.372,2.016c0,.059,0,.166.083.119.747-.451,1.411-1.02,2.111-1.542s1.578-1.186,2.372-1.744,1.459-1.115,2.218-1.649c.261-.178.783-.617,1.186-.617s.712.83.854,1.1a4.341,4.341,0,0,1,.356,2.515,12.8,12.8,0,0,0,.059,2.609,6.476,6.476,0,0,0,.688,2.372,10.083,10.083,0,0,0,1.506,1.755C204.557,251.538,204.687,251.419,204.6,251.348Z" transform="translate(-29.047 -204.212)"/><path class="n" d="M175.07,258.706s10.284-14.233,12.454-17.116c4.341-5.729,24.814-19.559,27.862-20.544s5.515,5.171-8.3,14.993c-7.283,5.183-7.745,10.07-7.117,12.573s4.1,6.737,8.3,5.729,5.717-7.828,9.489-9.347,2.693,6.227.795,10.96a26.735,26.735,0,0,1-9.619,11.387c-3.4,2.159-13.806,9.489-13.806,9.489Z" transform="translate(-32.38 -207.869)"/><path class="h" d="M209.191,247.883c-1.34,1.578-2.835,3.558-4.934,4.1s-3.89-.581-5.278-2.159a8.3,8.3,0,0,1-2.372-5.67,10.129,10.129,0,0,1,1.922-5.409,24.589,24.589,0,0,1,4.982-5.065.083.083,0,1,0-.107-.119c-1.791,1.281-7.378,5.077-7.473,10.734a8.469,8.469,0,0,0,2.455,5.765c1.3,1.506,3.025,2.859,5.136,2.6,2.562-.332,4.306-2.835,5.8-4.745C209.4,247.823,209.262,247.8,209.191,247.883Z" transform="translate(-28.498 -205.527)"/><path class="i" d="M186.031,249.588l15.076,29.5S181.2,293.7,170.1,294.625c-13.474,1.186-46.579-27.482-51.561-32.393-8.16-8.066-9.714-14.447-3.63-15.42,2.372-.391,5.931,0,10.675,1.53,4.946,1.554,34.4,12.8,42.605,13.771C172.7,262.647,186.031,249.588,186.031,249.588Z" transform="translate(-44.266 -203.081)"/><path class="i" d="M186.016,249.589l15.087,29.5s-3.3,2.372-7.971,5.349c-6.8,4.27-16.463,9.631-23.034,10.177-13.462,1.186-46.591-27.482-51.561-32.393-5.931-5.836-8.3-10.794-6.939-13.451a4.223,4.223,0,0,1,3.309-1.969c2.372-.38,5.931,0,10.675,1.542,4.946,1.554,34.4,12.8,42.605,13.771C172.7,262.648,186.016,249.589,186.016,249.589Z" transform="translate(-44.263 -203.082)"/><path class="i" d="M201.113,279.088s-3.3,2.372-7.971,5.349c-2.977,1.862-6.476,3.938-10.046,5.729-4.6,2.3-9.287,4.14-13.047,4.448-13.462,1.186-46.591-27.482-51.561-32.393-5.931-5.836-8.3-10.794-6.939-13.451a2.67,2.67,0,0,1,.688-.854,5.006,5.006,0,0,1,2.621-1.115c2.372-.38,5.931,0,10.675,1.542,4.946,1.554,34.4,12.8,42.605,13.771,4.567.546,17.887-12.514,17.887-12.514Z" transform="translate(-44.272 -203.082)"/><path class="h" d="M183.865,279.347c-2.372-4.294-11.363-22.192-13.047-26.2-.119-.273,0-.415.19-.142,7.378,12.68,10.924,21.92,13.047,26.249C184.09,279.359,183.924,279.454,183.865,279.347Z" transform="translate(-33.18 -201.93)"/><path class="h" d="M183.085,289.96c-4.6,2.3-9.287,4.14-13.047,4.448-13.462,1.186-46.591-27.482-51.561-32.393-5.931-5.836-8.3-10.794-6.939-13.451a2.669,2.669,0,0,1,.688-.854Z" transform="translate(-44.274 -202.888)"/><path class="i" d="M74.73,319.62c4.744.688,16.072,1.708,28.135,2.728,19.239,1.589,40.447,3.131,40.447,3.131l-3.558-36.77s4.922-7.117,4.021-14.008c-1.044-7.781-13.474-23.782-14.8-25.015-4.5-4.187-10.983-6.678-17.2-3.333a16.248,16.248,0,0,0-3.558,2.621,1.817,1.817,0,0,0-.214.214c-.344.332-.712.688-1.056,1.079C91.49,266.957,74.73,319.62,74.73,319.62Z" transform="translate(-51.055 -203.429)"/><path class="n" d="M102.032,253.666c-12.691,17.27-29.214,49.449-23.414,54.561,12.691,11.221,39.142,24.47,51.916,25.561,3.736.32,10.675-24.126,8.149-27.281s-34.4-12.039-34.682-14.471c-.19-1.388,3.974-16.772,7.556-31.622C115.7,243.37,105.661,248.72,102.032,253.666Z" transform="translate(-50.554 -202.687)"/><path class="n" d="M124.715,295.974s11.422-.32,18.895-.178c4.163.083,11.3.854,14.34,2.313,4.543,2.182,22.133,14.233,19.31,18.551-2.562,3.914-16.368-8.3-16.368-8.3s15.028,11.126,11.078,15.289-17.7-11.778-17.7-11.778,15.182,11.79,10.426,15.42c-3.558,2.752-16.855-10.972-16.855-10.972s13,10.2,9.442,13.19c-3.974,3.309-17.021-8.552-17.021-8.552-10.355,6.073-17.792,4.745-22.916,3.143C116.1,323.658,124.715,295.974,124.715,295.974Z" transform="translate(-43.146 -193.945)"/><path class="h" d="M149.879,302.82c1.815,1.245,3.653,2.491,5.349,3.891s3.345,2.859,4.9,4.412a38.148,38.148,0,0,1,5.492,6.619,80.734,80.734,0,0,0-10.794-10.58c-1.684-1.4-3.309-2.882-5.005-4.282Z" transform="translate(-37.079 -192.631)"/><path class="h" d="M145.519,307.9c2.254,1.7,4.543,3.285,6.713,5.077s4.057,3.653,6.085,5.575c.154.154,0,.19-.142,0-2.1-1.838-4.2-3.38-6.322-5.2s-4.187-3.724-6.381-5.456C145.447,307.925,145.483,307.877,145.519,307.9Z" transform="translate(-37.89 -191.686)"/><path class="h" d="M141.019,311.592a62.868,62.868,0,0,1,9.655,8.54c.154.154,0,.178-.178,0-3.167-2.894-5.622-5.2-9.56-8.445C140.853,311.663,140.924,311.544,141.019,311.592Z" transform="translate(-38.74 -191)"/><path class="i" d="M118.061,333.925l17.234-30.46s-29.428-10.284-30.163-11.233,5.124-20.164,7.591-32.808-3.25-15.657-12.62-3.724S73.487,299.184,76.381,306.87,118.061,333.925,118.061,333.925Z" transform="translate(-50.808 -202.801)"/><path class="h" d="M123.1,294.532a24.912,24.912,0,0,0-1.886,2.953l-1.969,3.226c-1.328,2.194-2.609,4.412-3.867,6.642-2.479,4.424-4.934,8.872-7.425,13.285,0,.107.095.19.166.095,2.728-4.294,5.421-8.587,8.018-12.964,1.293-2.159,2.538-4.341,3.713-6.559.593-1.115,1.186-2.23,1.755-3.345a26.088,26.088,0,0,0,1.589-3.274C123.215,294.532,123.132,294.5,123.1,294.532Z" transform="translate(-44.872 -194.176)"/><path class="h" d="M117.681,324.156c-5.4-2.858-10.675-5.931-15.989-9.014S91.017,308.95,86,305.475c-1.423-.984-2.859-1.957-4.258-2.977s-2.681-2.135-4.128-3.025c-.107-.071-.2.083-.119.154a27.593,27.593,0,0,0,3.452,2.989c1.186.973,2.467,1.922,3.724,2.859,2.372,1.815,4.97,3.558,7.532,5.136,5.148,3.3,10.509,6.251,15.953,9.026,3.131,1.589,6.322,3.072,9.489,4.685a.095.095,0,0,0,.036-.166Z" transform="translate(-50.546 -193.257)"/><path class="h" d="M130.776,300.343c-2.657-1.032-28.716-10.96-29.8-11.161,0-.807,2.3-10.118,2.811-12.276.119-.51.225-1.008.332-1.506.391-.984.771-1.981,1.186-2.977a34.977,34.977,0,0,1,1.85-3.938.1.1,0,1,0-.166-.095c-.676,1.3-1.364,2.621-1.981,3.95l-.32.7.569-2.491c.486-2.206,1.056-4.424,1.376-6.666a.107.107,0,0,0-.2,0c-.795,2.23-1.352,4.543-1.981,6.82s-4.246,18.693-4.116,18.8c.961.712,27.85,10.106,30.424,11.066C130.776,300.556,130.848,300.378,130.776,300.343Z" transform="translate(-46.289 -199.891)"/><rect class="j" width="60.967" height="2.74" transform="translate(71.345 135.228)"/><rect class="o" width="30.685" height="2.74" transform="translate(101.627 135.228)"/><path class="j" d="M143.24,332.562h59.413l7.769-40.352H151Z" transform="translate(-38.304 -194.605)"/><path class="c" d="M168.512,309.788a3.262,3.262,0,0,0,3.3,3.558,4.045,4.045,0,0,0,3.938-3.558,3.274,3.274,0,0,0-3.309-3.618A4.021,4.021,0,0,0,168.512,309.788Z" transform="translate(-33.603 -192.007)"/><path class="n" d="M107.639,249.637c.368.937,5.931,6.559,10.284,5.717,1.423-.285.261-8.149.261-8.149v-.6l.652-8.41-10.45-4.744-1.506-.617v9.43a56.782,56.782,0,0,0,.759,7.378Z" transform="translate(-45.071 -205.657)"/><path class="h" d="M106.9,238a16.89,16.89,0,0,0,11.327,8.6l.652-8.41-10.45-4.744-1.506-.617S106.9,235.119,106.9,238Z" transform="translate(-45.068 -205.657)"/><path class="n" d="M129.046,227.375c3.428,14.4-4.816,18.076-7.923,18.812-2.823.664-12.5,2.586-17.4-11.387s.712-20.164,7.117-21.991S125.618,213,129.046,227.375Z" transform="translate(-46.006 -209.489)"/><path class="h" d="M123.488,223.219a9.933,9.933,0,0,1-1.02,0,1.66,1.66,0,0,1-1.032-.249.522.522,0,0,1-.107-.629,1.293,1.293,0,0,1,1.186-.51,1.921,1.921,0,0,1,1.3.474.557.557,0,0,1-.332.913Z" transform="translate(-42.393 -207.706)"/><path class="h" d="M115.393,224.772a9.22,9.22,0,0,0,.949-.368,1.625,1.625,0,0,0,.9-.557.522.522,0,0,0-.107-.641,1.3,1.3,0,0,0-1.317-.095,2,2,0,0,0-1.079.866.557.557,0,0,0,.652.795Z" transform="translate(-43.62 -207.491)"/><path class="h" d="M117.521,227.33s-.059,0-.059.107c.225.984.308,2.147-.522,2.645h0C118.019,229.773,117.889,228.231,117.521,227.33Z" transform="translate(-43.199 -206.681)"/><path class="h" d="M116.68,226.6c-1.613.178-1.186,3.4.368,3.226S118.033,226.447,116.68,226.6Z" transform="translate(-43.438 -206.817)"/><path class="h" d="M116.29,226.824c-.249.225-.474.593-.818.676s-.724-.2-1.032-.486h0c.083.617.415,1.186,1.091,1.186s.961-.617,1.02-1.257C116.528,226.9,116.409,226.741,116.29,226.824Z" transform="translate(-43.664 -206.779)"/><path class="h" d="M122,226.3s.083,0,.083.071c.107,1.008.4,2.135,1.352,2.372h0C122.356,228.767,122,227.261,122,226.3Z" transform="translate(-42.257 -206.872)"/><path class="h" d="M122.768,225.314c1.589-.344,2.171,2.859.7,3.179S121.439,225.611,122.768,225.314Z" transform="translate(-42.254 -207.061)"/><path class="h" d="M123.276,225.463c.285.119.593.38.89.344s.557-.427.724-.807h0a1.278,1.278,0,0,1-.522,1.506c-.522.225-1.008-.249-1.257-.842C123.11,225.593,123.157,225.415,123.276,225.463Z" transform="translate(-42.051 -207.114)"/><path class="h" d="M118.207,233.852c.273.214.546.51.913.5a2.609,2.609,0,0,0,1.044-.356s.071,0,0,0a1.329,1.329,0,0,1-1.186.676,1.068,1.068,0,0,1-.878-.806C118.1,233.852,118.171,233.828,118.207,233.852Z" transform="translate(-42.983 -205.469)"/><path class="h" d="M121.727,231.757a21.846,21.846,0,0,1,.557,2.159c0,.071-.154.119-.391.178h0a3.381,3.381,0,0,1-3.44-.724c-.059-.059,0-.142.095-.107a5.148,5.148,0,0,0,3.179.38c0-.2-.842-2.467-.735-2.491a6.166,6.166,0,0,1,1.649.107c-.83-3.06-2.159-5.931-2.942-9a.095.095,0,0,1,.166-.071,51.147,51.147,0,0,1,3.558,9.56C123.554,232.125,122.036,231.84,121.727,231.757Z" transform="translate(-42.922 -207.644)"/><path class="h" d="M121.755,231.824a4.08,4.08,0,0,1-1.186,1.684,1.91,1.91,0,0,1-1.068.38c-.842,0-1.068-.712-1.091-1.364a4.661,4.661,0,0,1,.083-1.044A5.361,5.361,0,0,0,121.755,231.824Z" transform="translate(-42.926 -205.908)"/><path class="p" d="M120.519,233.353a1.91,1.91,0,0,1-1.068.38c-.842,0-1.068-.712-1.091-1.364a1.91,1.91,0,0,1,2.159.984Z" transform="translate(-42.935 -205.753)"/><path class="h" d="M104.39,235.315c1.661-.368,5.255-5.682,4.057-13.783,0,0,.569,7.342.2,8.493s2-2.989,1.127-9.489a26.735,26.735,0,0,0,7.259,2.372c3.214.356,5.088,0,5.266-.237s-4.567-.949-6.025-2.159c0,0,8.8,2.455,12.62,2.123.439,0-.51-9.086-6.974-11.932s-15,2.787-17.092,5.587c0,0-2.847.9-5.3,5.729S102.576,235.718,104.39,235.315Z" transform="translate(-46.555 -209.921)"/><path class="j" d="M121.5,227.812c-.51-2.479.4-4.744,2.052-5.124s3.4,1.4,3.926,3.89-.4,4.744-2.052,5.136S122.024,230.244,121.5,227.812Zm.6-.119c.451,2.147,1.886,3.677,3.191,3.416s2.016-2.254,1.578-4.412-1.886-3.677-3.2-3.4-2,2.147-1.554,4.341Z" transform="translate(-42.376 -207.554)"/><path class="j" d="M111.926,229.71a4.317,4.317,0,1,1,5.148,3.641A4.46,4.46,0,0,1,111.926,229.71Zm.6-.13a3.689,3.689,0,1,0,2.8-4.65,3.855,3.855,0,0,0-2.8,4.65Z" transform="translate(-44.14 -207.151)"/><path class="j" d="M118.83,227.388c2.1-1.269,3.274-.735,3.286-.735l.273-.546s-1.459-.712-3.879.747Z" transform="translate(-42.907 -206.941)"/><path class="j" d="M113.95,228.652V228c-.4,0-7.259.095-8.3.249s-3.25,2.052-3.487,2.265l.4.463a11.743,11.743,0,0,1,3.131-2.111h0C106.537,228.771,110.522,228.735,113.95,228.652Z" transform="translate(-45.95 -206.556)"/><path class="n" d="M106.574,232.224s-3.879-4.092-5.776-2.645,1.471,7.71,4.045,8.3a2.491,2.491,0,0,0,3.119-1.815Z" transform="translate(-46.307 -206.32)"/><path class="h" d="M101.56,231v.071a6.322,6.322,0,0,1,3.819,3.44,1.376,1.376,0,0,0-2.1-.071v.083a1.518,1.518,0,0,1,1.755.285,7.2,7.2,0,0,1,1,1.186c.107.142.368,0,.285-.154h0C106.079,233.693,103.932,230.894,101.56,231Z" transform="translate(-46.062 -205.998)"/><path class="a" d="M118.6,244.934,117.039,253l-9.418-8.22L105,247.959s10.889,14.233,10.817,13.51l1.838-7.046,5.314,3.629-2.313-10.141Z" transform="translate(-45.421 -203.433)"/><path class="h" d="M120.784,247.5c0-.059-.142-.071-.13,0,.2,1.732,1.625,7.8,1.945,9.489h0c-.225-.166-4.887-3.155-4.911-3.084-.474,1.186-1.827,6.286-1.9,6.737-1.91-2.111-8.718-11.256-10.865-13.19a.071.071,0,0,0-.095.095c1.755,2.277,10.936,14.091,11.043,14.032a70.6,70.6,0,0,0,1.91-7.437,51.247,51.247,0,0,0,5.587,3.879C123.074,256.157,121.354,249.29,120.784,247.5Z" transform="translate(-45.454 -202.937)"/></g></g></svg>