<svg xmlns="http://www.w3.org/2000/svg" width="40" height="48.002" viewBox="0 0 40 48.002"><defs><style>.a{fill:#1c75bc;}</style></defs><g transform="translate(-4 0.002)"><path class="a" d="M12,36a2.006,2.006,0,0,0,2,2h2v7a3,3,0,0,0,6,0V38h4v7a3,3,0,0,0,6,0V38h2a2.006,2.006,0,0,0,2-2V16H12ZM7,16a3,3,0,0,0-3,3V33a3,3,0,0,0,6,0V19A3,3,0,0,0,7,16Zm34,0a3,3,0,0,0-3,3V33a3,3,0,0,0,6,0V19A3,3,0,0,0,41,16ZM31.06,4.32l2.61-2.61A1,1,0,0,0,32.26.3L29.3,3.25a11.882,11.882,0,0,0-10.63.01L15.7.29A1,1,0,0,0,14.29,1.7l2.62,2.62A12.014,12.014,0,0,0,12,14H36a11.958,11.958,0,0,0-4.94-9.68ZM20,10H18V8h2Zm10,0H28V8h2Z"/></g></svg>