<svg xmlns="http://www.w3.org/2000/svg" width="52.758" height="48.002" viewBox="0 0 52.758 48.002"><defs><style>.a{fill:#1c75bc;}</style></defs><g transform="translate(0 0)"><g transform="translate(0 0)"><path class="a" d="M27.333,39.595A12.313,12.313,0,0,0,38.181,33H16.486a12.313,12.313,0,0,0,10.847,6.595Z" transform="translate(-0.954 -1.91)"/><path class="a" d="M31.711,16.884A1.886,1.886,0,0,0,29.826,15H27v3.768h2.826A1.886,1.886,0,0,0,31.711,16.884Z" transform="translate(-1.563 -0.868)"/><path class="a" d="M18.945,17.163l-.891,2.673h1.782Z" transform="translate(-1.045 -0.993)"/><path class="a" d="M10.649,32.979a12.2,12.2,0,0,1-2.81-.338l-2.909,1.2L7.263,39.5l3.977-1.642a.943.943,0,0,1,1.131.33,17.346,17.346,0,0,0,4.263,4.263.941.941,0,0,1,.33,1.132l-1.641,3.968,5.654,2.344,1.643-3.97a.942.942,0,0,1,1.035-.568,17.023,17.023,0,0,0,6.018-.008.944.944,0,0,1,1.037.566l1.651,3.977,5.646-2.341-1.642-3.978a.942.942,0,0,1,.334-1.133,17.156,17.156,0,0,0,4.26-4.252.941.941,0,0,1,1.131-.328L46.065,39.5l2.346-5.657L46.3,32.963c-.106,0-.21.016-.317.016H39.6a14.1,14.1,0,0,1-25.869,0Z" transform="translate(-0.285 -1.889)"/><path class="a" d="M10.363,29.205H45.692a7.066,7.066,0,0,0,0-14.132H45.6a.942.942,0,0,1-.888-.628,8.939,8.939,0,0,0-8.493-5.966c-.092,0-.184,0-.275.007a.951.951,0,0,1-.946-.6A12.245,12.245,0,0,0,12.1,7.908a.94.94,0,0,1-.976.6,7.586,7.586,0,0,0-.763-.033,10.363,10.363,0,1,0,0,20.726ZM32.974,12.247h5.653a.942.942,0,0,1,0,1.884H36.742v9.421h1.884a.942.942,0,0,1,0,1.884H32.974a.942.942,0,1,1,0-1.884h1.884V14.132H32.974a.942.942,0,1,1,0-1.884Zm-8.479,0h3.768a3.768,3.768,0,0,1,0,7.537H25.437v4.711a.942.942,0,1,1-1.884,0V13.19A.942.942,0,0,1,24.495,12.247ZM15.122,8.181c2.075-6.225,7.269-6.3,7.489-6.3a.942.942,0,0,1,0,1.884c-.183,0-4.076.12-5.706,5.009a.942.942,0,0,1-1.788-.6ZM13.238,24.2l3.768-11.305c.007-.022.024-.036.033-.057a1.017,1.017,0,0,1,.507-.507c.02-.008.035-.025.056-.032a.883.883,0,0,1,.106-.013.787.787,0,0,1,.384,0,.878.878,0,0,1,.106.013c.021.007.035.024.056.032a1.02,1.02,0,0,1,.508.507c.009.021.025.035.033.057L22.562,24.2a.942.942,0,0,1-1.788.6l-1.356-4.066H16.381l-1.356,4.067a.942.942,0,0,1-1.788-.6ZM6.748,11.179a.942.942,0,1,1,.805,1.7,6.623,6.623,0,0,0-3.785,5.96A6.475,6.475,0,0,0,5.226,22.96a.942.942,0,1,1-1.464,1.186A8.455,8.455,0,0,1,6.748,11.179Z" transform="translate(0 0)"/></g></g></svg>