<svg xmlns="http://www.w3.org/2000/svg" width="45.432" height="31.234" viewBox="0 0 45.432 31.234"><defs><style>.a{fill:#1c75bc;}</style></defs><g transform="translate(0 -80)"><g transform="translate(30.115 85.758)"><path class="a" d="M339.392,154.988l15.316,9.683V144.9Z" transform="translate(-339.392 -144.896)"/></g><g transform="translate(0 85.758)"><path class="a" d="M0,144.9V164.67l15.316-9.683Z" transform="translate(0 -144.896)"/></g><g transform="translate(0.085 80)"><path class="a" d="M43.467,80H3.714A2.8,2.8,0,0,0,.96,82.416l22.631,14.91,22.631-14.91A2.8,2.8,0,0,0,43.467,80Z" transform="translate(-0.96 -80)"/></g><g transform="translate(0.091 97.562)"><path class="a" d="M28.448,277.923l-4.018,2.646a1.426,1.426,0,0,1-1.562,0L18.85,277.92,1.024,289.2a2.8,2.8,0,0,0,2.749,2.4H43.525a2.8,2.8,0,0,0,2.749-2.4Z" transform="translate(-1.024 -277.92)"/></g></g></svg>