<svg xmlns="http://www.w3.org/2000/svg" width="42.318" height="42.318" viewBox="0 0 42.318 42.318"><defs><style>.a{fill:#fff;}</style></defs><path class="a" d="M291.386,508.668q-.264.043-.531.079Q291.121,508.711,291.386,508.668Zm0,0" transform="translate(-266.815 -466.625)"/><path class="a" d="M299.592,507.793l-.253.044Zm0,0" transform="translate(-274.598 -465.822)"/><path class="a" d="M278.232,510.34q-.309.035-.622.061Q277.922,510.375,278.232,510.34Zm0,0" transform="translate(-254.664 -468.159)"/><path class="a" d="M286.744,509.738l-.3.037Zm0,0" transform="translate(-262.77 -467.607)"/><path class="a" d="M306.887,506.41l-.223.047Zm0,0" transform="translate(-281.317 -464.554)"/><path class="a" d="M324.664,502.113l-.18.05Zm0,0" transform="translate(-297.665 -460.612)"/><path class="a" d="M319.255,503.543l-.2.051Zm0,0" transform="translate(-292.688 -461.924)"/><path class="a" d="M312.275,505.254l-.209.047Zm0,0" transform="translate(-286.273 -463.493)"/><path class="a" d="M273.815,511.09q-.167.014-.335.025Q273.648,511.1,273.815,511.09Zm0,0" transform="translate(-250.876 -468.847)"/><path class="a" d="M42.318,21.159A21.159,21.159,0,1,0,21.159,42.318c.124,0,.248,0,.372,0V25.842H16.985v-5.3h4.546v-3.9c0-4.521,2.76-6.982,6.793-6.982a37.421,37.421,0,0,1,4.076.208V14.6H29.619C27.425,14.6,27,15.64,27,17.17v3.374h5.247l-.684,5.3H27V41.5A21.171,21.171,0,0,0,42.318,21.159Zm0,0"/><path class="a" d="M265.554,511.43c-.22.014-.441.026-.663.033C265.112,511.456,265.334,511.444,265.554,511.43Zm0,0" transform="translate(-242.997 -469.159)"/><path class="a" d="M260.855,511.836l-.351.009Zm0,0" transform="translate(-238.973 -469.531)"/></svg>