<svg xmlns="http://www.w3.org/2000/svg" width="48.002" height="48.002" viewBox="0 0 48.002 48.002"><defs><style>.a{fill:#1c75bc;}</style></defs><path class="a" d="M38.158,0H9.844A9.855,9.855,0,0,0,0,9.844V38.158A9.855,9.855,0,0,0,9.844,48H38.158A9.855,9.855,0,0,0,48,38.158V9.844A9.855,9.855,0,0,0,38.158,0ZM14.78,36.987a2.344,2.344,0,0,1-4.06-2.344l.461-.8h5.413ZM10.36,31.97a2.344,2.344,0,1,1,0-4.688H14.97l6.324-10.954L19.581,13.36a2.347,2.347,0,0,1,.858-3.2h0a2.347,2.347,0,0,1,3.2.858l.361.625.361-.625a2.344,2.344,0,1,1,4.06,2.344L20.383,27.282h5.07L28.16,31.97Zm27.282,0h-1.9l1.543,2.673a2.344,2.344,0,1,1-4.06,2.344l-8.138-14.1L27.79,18.2l5.242,9.079h4.611a2.344,2.344,0,0,1,0,4.688Z"/></svg>