<svg xmlns="http://www.w3.org/2000/svg" width="279.698" height="87.292" viewBox="0 0 279.698 87.292"><defs><style>.a{fill:#fff;}</style></defs><g transform="translate(-5 -4.262)"><path class="a" d="M94.609,36h16.4c.8,0,1.143.171,1.314,1.029a76.3,76.3,0,0,1,1.314,13.945c.057,4.858.229,9.716.114,14.574-.057,5.144-.229,10.344-.629,15.488a33.356,33.356,0,0,1-3.143,12.116c-2.743,5.544-7.258,8.8-13.088,10.344a50.03,50.03,0,0,1-14.574,1.257,37.775,37.775,0,0,1-9.487-1.486,19.005,19.005,0,0,1-12.688-11.2,36.766,36.766,0,0,1-2.458-10.173C56.832,74.234,57,66.519,57.06,58.8q0-7.2.343-14.4c.171-2.572.743-5.144,1.143-7.658a.984.984,0,0,1,.686-.572c5.429-.057,10.859,0,16.288,0a.966.966,0,0,1,.286.114,20.108,20.108,0,0,0-1.029,2.572,31.244,31.244,0,0,0-1.143,6.458c-.171,10.173-.229,20.289-.171,30.462,0,3.6.286,7.258,1.943,10.63a9.767,9.767,0,0,0,8.744,5.658,12.522,12.522,0,0,0,7.03-1.314,11,11,0,0,0,5.086-7.2,35.8,35.8,0,0,0,1.029-9.2c0-8.173.057-16.288,0-24.461A33.155,33.155,0,0,0,95.752,38.8,22.244,22.244,0,0,0,94.609,36Z" transform="translate(-22.284 -13.599)"/><path class="a" d="M163.414,36h186.37c1.257,0,1.257,0,1.257,1.257,0,1.772.229,1.543-1.6,1.543H199.763c-1.257,0-1.257,0-1.257,1.2v64.124c0,.629-.171.857-.8.857-4.8,0-9.544-.057-14.345,0-.914,0-.857-.514-.857-1.086V40.115c0-1.257-.057-1.314-1.314-1.314H164.957c-1.657,0-1.657,0-1.657-1.657A6.429,6.429,0,0,0,163.414,36Z" transform="translate(-67.83 -13.599)"/><path class="a" d="M21.1,70.634v33.2c0,1.143,0,1.143-1.143,1.143H6.181c-.857,0-1.143-.286-1.086-1.143V37.029C5.038,36.229,5.323,36,6.181,36q6.944.086,13.888,0c.914,0,1.086.286,1.086,1.143C21.1,48.288,21.1,59.432,21.1,70.634Z" transform="translate(-0.038 -13.599)"/><path class="a" d="M440.857,50.3h6.4V84.476c.114,0,.171.057.286.057.171-.171.286-.4.457-.572l8.4-10.116c1.543-1.886,3.143-3.715,4.744-5.6a1.569,1.569,0,0,1,1.029-.572c2.286-.057,4.515,0,6.8,0a2.245,2.245,0,0,1,.343.114c-1.314,1.372-2.572,2.743-3.829,4.058-3.258,3.486-6.515,6.972-9.83,10.4-.4.457-.229.743,0,1.086l9.773,17.145c1.886,3.258,3.715,6.515,5.6,9.773.114.229.229.457.4.857-1.829,0-3.6-.114-5.258.057-1.886.229-2.915-.457-3.772-2.229-3.486-7.03-7.2-14-10.859-20.975a3.4,3.4,0,0,0-.229-.457c-.457-.8-.629-.8-1.257-.171a7.113,7.113,0,0,1-1.086,1.2c-1.6,1.257-1.886,2.858-1.829,4.8.114,5.544.057,11.087.057,16.631v1.086h-4.229c-2.172,0-2.172,0-2.172-2.172V51.443A6.238,6.238,0,0,0,440.857,50.3Z" transform="translate(-186.735 -19.727)"/><path class="a" d="M359.6,80.048h5.029c.171,0,.457.343.457.572.114,1.257.171,2.572.286,3.829.057.457.057.857.114,1.6.343-.343.629-.514.743-.743a13.134,13.134,0,0,1,11.145-6.115,12.007,12.007,0,0,1,10.8,5.029,13.24,13.24,0,0,1,2.4,6.115,44.413,44.413,0,0,1,.343,5.544c.057,8.858,0,17.717.057,26.575,0,.857-.171,1.2-1.143,1.2-1.314-.057-2.686,0-4.058,0-1.257,0-1.257,0-1.257-1.2v-18.8c0-2.8.057-5.544,0-8.344a15.679,15.679,0,0,0-1.029-5.6c-1.772-4.286-5.429-5.772-9.6-4.915-4.744,1.029-7.715,5.086-7.715,10.287v27.2c0,1.314,0,1.314-1.314,1.314H359.6Z" transform="translate(-151.942 -32.1)"/><path class="a" d="M163.521,7.194c-.114-.171-.114-.229-.114-.229-.286-2.572-.286-2.572,2.286-2.572H349.434c1.772,0,1.6-.229,1.6,1.657,0,1.2,0,1.2-1.143,1.2H164.435A4.916,4.916,0,0,0,163.521,7.194Z" transform="translate(-67.821 -0.052)"/><path class="a" d="M280.747,107.808v5.258c-.229,0-.4.057-.571.057H253.6c-1.2,0-1.2,0-1.2-1.257V56.257c0-1.257,0-1.257,1.2-1.257h4.286c.629,0,.914.171.914.857V67.116c0,3.2-.057,6.4-.057,9.6v10.4c0,4.515.057,9.087.057,13.6,0,2,.057,4,0,6-.057.857.286,1.086,1.086,1.086h20.86Z" transform="translate(-106.008 -21.74)"/><path class="a" d="M163.539,15.3H349.91a2.459,2.459,0,0,1,1.143.229,6.214,6.214,0,0,1,0,2.057c0,.114-.629.229-.972.229H165.2c-1.943,0-1.715.4-1.715-1.772A1.753,1.753,0,0,1,163.539,15.3Z" transform="translate(-67.897 -4.729)"/><path class="a" d="M163.5,28.158v-2.4c.343,0,.686-.057,1.029-.057h185.4c.4,0,1.029.114,1.086.286a8.265,8.265,0,0,1,0,2.057c0,.057-.286.114-.457.171H164.814A9.273,9.273,0,0,0,163.5,28.158Z" transform="translate(-67.915 -9.186)"/><path class="a" d="M328.21,102.411V123.1c0,.857-.229,1.143-1.086,1.086q-2.143-.086-4.286,0c-.914.057-1.2-.229-1.143-1.143.057-11.773,0-23.489,0-35.262,0-2.057.057-4.058,0-6.058,0-.857.286-1.086,1.086-1.029,1.543.057,3.029.057,4.572,0,.743,0,.914.229.914.914C328.21,88.524,328.21,95.439,328.21,102.411Z" transform="translate(-135.697 -32.746)"/><path class="a" d="M112.965,28.2c-.286,0-.572.057-.857.057H94.219a3.344,3.344,0,0,1-1.257-.286,11.683,11.683,0,0,0-11.145,0,2.671,2.671,0,0,1-1.086.343H62.214a1.763,1.763,0,0,1-.514-.057c.229-.629.457-1.2.629-1.772a.905.905,0,0,1,1.029-.686h47.378C112.336,25.74,112.85,26.254,112.965,28.2Z" transform="translate(-24.295 -9.225)"/><path class="a" d="M112.478,17.715H67.1a3.67,3.67,0,0,1,3.315-2.458q19.117,0,38.234-.057a3.483,3.483,0,0,1,3.086,1.486A9.038,9.038,0,0,0,112.478,17.715Z" transform="translate(-26.609 -4.687)"/><path class="a" d="M80.2,6.856a45.023,45.023,0,0,1,30.119,0v.286H80.2Z" transform="translate(-32.222)"/><path class="a" d="M324.282,63a3.692,3.692,0,0,1-3.886-4,3.855,3.855,0,0,1,4.058-4c2.515,0,3.943,1.543,4,4.172A3.731,3.731,0,0,1,324.282,63Z" transform="translate(-135.141 -21.739)"/><path class="a" d="M21.06,7.185H6.086C5.229,7.242,5,6.956,5,6.156c.057-2.115-.114-1.772,1.772-1.772H20.031c.8,0,1.143.171,1.029,1.029C21,5.928,21.06,6.5,21.06,7.185Z" transform="translate(0 -0.044)"/><path class="a" d="M21.045,25.8v2.343H5.1V25.8Z" transform="translate(-0.043 -9.229)"/><path class="a" d="M21.1,17.858H6.357c-1.257,0-1.257,0-1.257-1.257V15.457c.4,0,.743-.057,1.086-.057H19.959c1.2,0,1.2,0,1.2,1.2A8.069,8.069,0,0,0,21.1,17.858Z" transform="translate(-0.043 -4.772)"/></g></svg>