<svg xmlns="http://www.w3.org/2000/svg" width="48.214" height="48.117" viewBox="0 0 48.214 48.117"><defs><style>.a{fill:#1c75bc;}</style></defs><g transform="translate(0 -0.316)"><path class="a" d="M231.816,355.023c3.687-.524,6.919-4.372,8.953-10.055a43.763,43.763,0,0,0-8.953-1.054Zm0,0" transform="translate(-206.847 -306.589)"/><path class="a" d="M280.251,366.343c.218-.063.435-.127.65-.2.182-.059.361-.122.54-.184.212-.073.423-.148.634-.228.179-.068.357-.141.535-.213l.613-.258c.177-.078.353-.159.529-.242.2-.094.4-.189.594-.289q.259-.132.517-.27.29-.155.576-.318c.173-.1.339-.2.507-.3l.557-.345c.165-.105.33-.212.493-.322.182-.122.361-.25.539-.377.16-.115.32-.229.476-.345.173-.133.349-.271.522-.409.154-.122.307-.244.458-.37.172-.143.337-.291.5-.439.146-.13.294-.259.437-.392.165-.154.325-.313.485-.47.139-.137.279-.272.415-.413.025-.026.049-.054.075-.081a28.962,28.962,0,0,0-5.9-2.272,21.382,21.382,0,0,1-5.507,8.942c.07-.018.14-.033.21-.051C279.89,366.453,280.071,366.4,280.251,366.343Zm0,0" transform="translate(-249.392 -318.813)"/><path class="a" d="M347.63,231.684H337.3a44.687,44.687,0,0,1-1.74,11.921,29.965,29.965,0,0,1,6.539,2.6,24.074,24.074,0,0,0,5.532-14.523Zm0,0" transform="translate(-299.416 -206.447)"/><path class="a" d="M231.816,120.439h11.19a43.105,43.105,0,0,0-1.7-11.5,45.386,45.386,0,0,1-9.494,1.132Zm0,0" transform="translate(-206.847 -96.926)"/><path class="a" d="M231.816.316V11.425a43.793,43.793,0,0,0,8.953-1.054C238.735,4.688,235.5.84,231.816.316Zm0,0" transform="translate(-206.847)"/><path class="a" d="M231.816,242.048a45.416,45.416,0,0,1,9.494,1.133,43.108,43.108,0,0,0,1.7-11.5h-11.19Zm0,0" transform="translate(-206.847 -206.447)"/><path class="a" d="M342.1,80.844a29.968,29.968,0,0,1-6.54,2.6,44.687,44.687,0,0,1,1.74,11.921H347.63A24.081,24.081,0,0,0,342.1,80.844Zm0,0" transform="translate(-299.416 -71.854)"/><path class="a" d="M290.875,13.465c-.025-.026-.049-.053-.074-.08-.136-.141-.278-.276-.417-.413-.16-.158-.319-.317-.484-.47-.143-.133-.29-.259-.437-.391-.167-.148-.334-.3-.506-.441-.149-.126-.3-.246-.453-.367-.172-.14-.349-.279-.527-.412-.156-.117-.313-.231-.472-.345-.18-.13-.361-.259-.544-.382-.161-.109-.325-.215-.488-.318-.186-.12-.372-.237-.562-.351-.166-.1-.334-.2-.5-.294q-.289-.165-.581-.321c-.172-.086-.345-.18-.517-.266-.2-.1-.4-.2-.6-.291q-.259-.123-.525-.24c-.2-.09-.41-.172-.616-.258-.178-.072-.354-.144-.533-.212-.209-.08-.421-.155-.633-.228-.179-.063-.358-.126-.54-.185-.215-.07-.431-.133-.652-.2-.179-.053-.359-.106-.541-.154-.069-.019-.14-.034-.21-.052a21.384,21.384,0,0,1,5.507,8.942,28.918,28.918,0,0,0,5.911-2.274Zm0,0" transform="translate(-249.357 -5.782)"/><path class="a" d="M0,95.367H10.332a44.7,44.7,0,0,1,1.739-11.921,29.93,29.93,0,0,1-6.539-2.6A24.075,24.075,0,0,0,0,95.367Zm0,0" transform="translate(0 -71.854)"/><path class="a" d="M141.648,355.023V343.914a43.793,43.793,0,0,0-8.953,1.054c2.033,5.683,5.266,9.531,8.953,10.055Zm0,0" transform="translate(-118.403 -306.589)"/><path class="a" d="M123.111,231.684h-11.19a43.092,43.092,0,0,0,1.7,11.5,45.356,45.356,0,0,1,9.494-1.133Zm0,0" transform="translate(-99.866 -206.447)"/><path class="a" d="M141.648.316c-3.687.524-6.919,4.372-8.953,10.055a43.734,43.734,0,0,0,8.953,1.054Zm0,0" transform="translate(-118.403)"/><path class="a" d="M123.112,110.074a45.387,45.387,0,0,1-9.494-1.132,43.088,43.088,0,0,0-1.7,11.5h11.19Zm0,0" transform="translate(-99.867 -96.925)"/><path class="a" d="M73.6,6.789c-.07.018-.14.033-.21.051-.183.049-.363.1-.544.156-.216.063-.431.127-.648.2-.183.059-.363.122-.543.185-.211.074-.422.149-.631.228-.18.069-.358.141-.536.214l-.613.258c-.178.078-.353.159-.529.242-.2.094-.4.189-.594.289q-.259.132-.517.27-.29.155-.575.318-.259.145-.508.3c-.187.113-.372.229-.557.345-.166.106-.33.213-.493.323-.182.122-.361.25-.539.377-.16.115-.32.229-.477.345-.176.133-.345.271-.522.408-.153.122-.308.244-.457.371-.173.142-.336.289-.5.437-.147.131-.3.259-.44.395-.164.153-.323.311-.483.469-.139.137-.28.273-.417.414-.025.026-.049.055-.075.081a28.929,28.929,0,0,0,5.9,2.272,21.375,21.375,0,0,1,5.5-8.937Zm0,0" transform="translate(-55.493 -5.775)"/><path class="a" d="M62.714,360.327c.16.158.32.317.484.471.143.133.29.258.437.391.167.148.334.3.506.44.149.125.3.246.453.367.173.14.345.279.527.413.155.117.313.229.471.345.18.129.362.258.545.382.161.109.325.215.488.319.186.12.372.237.562.35q.249.15.5.294.289.165.581.321c.172.086.345.18.517.266.2.1.4.2.6.292q.259.122.525.239c.2.09.41.172.616.258.178.072.354.144.533.212.209.08.421.155.633.228.179.063.358.126.54.184.215.07.431.134.652.2.179.053.359.106.54.154.07.019.141.034.21.052a21.388,21.388,0,0,1-5.507-8.943,28.93,28.93,0,0,0-5.9,2.273c.025.026.049.053.074.08.129.14.268.275.409.412Zm0,0" transform="translate(-55.528 -318.767)"/><path class="a" d="M5.532,246.206a29.974,29.974,0,0,1,6.539-2.6,44.7,44.7,0,0,1-1.739-11.921H0A24.079,24.079,0,0,0,5.532,246.206Zm0,0" transform="translate(0 -206.446)"/></g></svg>