<svg xmlns="http://www.w3.org/2000/svg" width="42.32" height="42.32" viewBox="0 0 42.32 42.32"><defs><style>.a{fill:#fff;}</style></defs><path class="a" d="M224.113,216.291l7.163-4.126-7.163-4.126Zm0,0" transform="translate(-205.735 -191.005)"/><path class="a" d="M21.16,0A21.16,21.16,0,1,0,42.32,21.16,21.162,21.162,0,0,0,21.16,0ZM34.382,21.182a34.924,34.924,0,0,1-.544,6.361,3.313,3.313,0,0,1-2.331,2.331c-2.069.545-10.347.545-10.347.545s-8.256,0-10.347-.566A3.314,3.314,0,0,1,8.483,27.52a34.771,34.771,0,0,1-.545-6.36,34.9,34.9,0,0,1,.545-6.36,3.381,3.381,0,0,1,2.331-2.352C12.883,11.9,21.16,11.9,21.16,11.9s8.277,0,10.347.566A3.314,3.314,0,0,1,33.837,14.8a33.142,33.142,0,0,1,.544,6.382Zm0,0"/></svg>